<?xml version="1.0" encoding="utf-8" standalone="no"?>
<!DOCTYPE svg PUBLIC "-//W3C//DTD SVG 1.1//EN"
  "http://www.w3.org/Graphics/SVG/1.1/DTD/svg11.dtd">
<!-- Created with matplotlib (https://matplotlib.org/) -->
<svg height="560.393906pt" version="1.1" viewBox="0 0 773.203125 560.393906" width="773.203125pt" xmlns="http://www.w3.org/2000/svg" xmlns:xlink="http://www.w3.org/1999/xlink">
 <metadata>
  <rdf:RDF xmlns:cc="http://creativecommons.org/ns#" xmlns:dc="http://purl.org/dc/elements/1.1/" xmlns:rdf="http://www.w3.org/1999/02/22-rdf-syntax-ns#">
   <cc:Work>
    <dc:type rdf:resource="http://purl.org/dc/dcmitype/StillImage"/>
    <dc:date>2021-04-04T08:46:58.733248</dc:date>
    <dc:format>image/svg+xml</dc:format>
    <dc:creator>
     <cc:Agent>
      <dc:title>Matplotlib v3.3.2, https://matplotlib.org/</dc:title>
     </cc:Agent>
    </dc:creator>
   </cc:Work>
  </rdf:RDF>
 </metadata>
 <defs>
  <style type="text/css">*{stroke-linecap:butt;stroke-linejoin:round;}</style>
 </defs>
 <g id="figure_1">
  <g id="patch_1">
   <path d="M 0 560.393906 
L 773.203125 560.393906 
L 773.203125 0 
L 0 0 
z
" style="fill:none;"/>
  </g>
  <g id="axes_1">
   <g id="patch_2">
    <path d="M 40.603125 522.837656 
L 766.003125 522.837656 
L 766.003125 33.597656 
L 40.603125 33.597656 
z
" style="fill:#ffffff;"/>
   </g>
   <g id="matplotlib.axis_1">
    <g id="xtick_1">
     <g id="line2d_1">
      <defs>
       <path d="M 0 0 
L 0 3.5 
" id="md894459b5f" style="stroke:#000000;stroke-width:0.8;"/>
      </defs>
      <g>
       <use style="stroke:#000000;stroke-width:0.8;" x="136.137513" xlink:href="#md894459b5f" y="522.837656"/>
      </g>
     </g>
     <g id="text_1">
      <!-- Sunday -->
      <g transform="translate(117.428138 537.436094)scale(0.1 -0.1)">
       <defs>
        <path d="M 53.515625 70.515625 
L 53.515625 60.890625 
Q 47.90625 63.578125 42.921875 64.890625 
Q 37.9375 66.21875 33.296875 66.21875 
Q 25.25 66.21875 20.875 63.09375 
Q 16.5 59.96875 16.5 54.203125 
Q 16.5 49.359375 19.40625 46.890625 
Q 22.3125 44.4375 30.421875 42.921875 
L 36.375 41.703125 
Q 47.40625 39.59375 52.65625 34.296875 
Q 57.90625 29 57.90625 20.125 
Q 57.90625 9.515625 50.796875 4.046875 
Q 43.703125 -1.421875 29.984375 -1.421875 
Q 24.8125 -1.421875 18.96875 -0.25 
Q 13.140625 0.921875 6.890625 3.21875 
L 6.890625 13.375 
Q 12.890625 10.015625 18.65625 8.296875 
Q 24.421875 6.59375 29.984375 6.59375 
Q 38.421875 6.59375 43.015625 9.90625 
Q 47.609375 13.234375 47.609375 19.390625 
Q 47.609375 24.75 44.3125 27.78125 
Q 41.015625 30.8125 33.5 32.328125 
L 27.484375 33.5 
Q 16.453125 35.6875 11.515625 40.375 
Q 6.59375 45.0625 6.59375 53.421875 
Q 6.59375 63.09375 13.40625 68.65625 
Q 20.21875 74.21875 32.171875 74.21875 
Q 37.3125 74.21875 42.625 73.28125 
Q 47.953125 72.359375 53.515625 70.515625 
z
" id="DejaVuSans-83"/>
        <path d="M 8.5 21.578125 
L 8.5 54.6875 
L 17.484375 54.6875 
L 17.484375 21.921875 
Q 17.484375 14.15625 20.5 10.265625 
Q 23.53125 6.390625 29.59375 6.390625 
Q 36.859375 6.390625 41.078125 11.03125 
Q 45.3125 15.671875 45.3125 23.6875 
L 45.3125 54.6875 
L 54.296875 54.6875 
L 54.296875 0 
L 45.3125 0 
L 45.3125 8.40625 
Q 42.046875 3.421875 37.71875 1 
Q 33.40625 -1.421875 27.6875 -1.421875 
Q 18.265625 -1.421875 13.375 4.4375 
Q 8.5 10.296875 8.5 21.578125 
z
M 31.109375 56 
z
" id="DejaVuSans-117"/>
        <path d="M 54.890625 33.015625 
L 54.890625 0 
L 45.90625 0 
L 45.90625 32.71875 
Q 45.90625 40.484375 42.875 44.328125 
Q 39.84375 48.1875 33.796875 48.1875 
Q 26.515625 48.1875 22.3125 43.546875 
Q 18.109375 38.921875 18.109375 30.90625 
L 18.109375 0 
L 9.078125 0 
L 9.078125 54.6875 
L 18.109375 54.6875 
L 18.109375 46.1875 
Q 21.34375 51.125 25.703125 53.5625 
Q 30.078125 56 35.796875 56 
Q 45.21875 56 50.046875 50.171875 
Q 54.890625 44.34375 54.890625 33.015625 
z
" id="DejaVuSans-110"/>
        <path d="M 45.40625 46.390625 
L 45.40625 75.984375 
L 54.390625 75.984375 
L 54.390625 0 
L 45.40625 0 
L 45.40625 8.203125 
Q 42.578125 3.328125 38.25 0.953125 
Q 33.9375 -1.421875 27.875 -1.421875 
Q 17.96875 -1.421875 11.734375 6.484375 
Q 5.515625 14.40625 5.515625 27.296875 
Q 5.515625 40.1875 11.734375 48.09375 
Q 17.96875 56 27.875 56 
Q 33.9375 56 38.25 53.625 
Q 42.578125 51.265625 45.40625 46.390625 
z
M 14.796875 27.296875 
Q 14.796875 17.390625 18.875 11.75 
Q 22.953125 6.109375 30.078125 6.109375 
Q 37.203125 6.109375 41.296875 11.75 
Q 45.40625 17.390625 45.40625 27.296875 
Q 45.40625 37.203125 41.296875 42.84375 
Q 37.203125 48.484375 30.078125 48.484375 
Q 22.953125 48.484375 18.875 42.84375 
Q 14.796875 37.203125 14.796875 27.296875 
z
" id="DejaVuSans-100"/>
        <path d="M 34.28125 27.484375 
Q 23.390625 27.484375 19.1875 25 
Q 14.984375 22.515625 14.984375 16.5 
Q 14.984375 11.71875 18.140625 8.90625 
Q 21.296875 6.109375 26.703125 6.109375 
Q 34.1875 6.109375 38.703125 11.40625 
Q 43.21875 16.703125 43.21875 25.484375 
L 43.21875 27.484375 
z
M 52.203125 31.203125 
L 52.203125 0 
L 43.21875 0 
L 43.21875 8.296875 
Q 40.140625 3.328125 35.546875 0.953125 
Q 30.953125 -1.421875 24.3125 -1.421875 
Q 15.921875 -1.421875 10.953125 3.296875 
Q 6 8.015625 6 15.921875 
Q 6 25.140625 12.171875 29.828125 
Q 18.359375 34.515625 30.609375 34.515625 
L 43.21875 34.515625 
L 43.21875 35.40625 
Q 43.21875 41.609375 39.140625 45 
Q 35.0625 48.390625 27.6875 48.390625 
Q 23 48.390625 18.546875 47.265625 
Q 14.109375 46.140625 10.015625 43.890625 
L 10.015625 52.203125 
Q 14.9375 54.109375 19.578125 55.046875 
Q 24.21875 56 28.609375 56 
Q 40.484375 56 46.34375 49.84375 
Q 52.203125 43.703125 52.203125 31.203125 
z
" id="DejaVuSans-97"/>
        <path d="M 32.171875 -5.078125 
Q 28.375 -14.84375 24.75 -17.8125 
Q 21.140625 -20.796875 15.09375 -20.796875 
L 7.90625 -20.796875 
L 7.90625 -13.28125 
L 13.1875 -13.28125 
Q 16.890625 -13.28125 18.9375 -11.515625 
Q 21 -9.765625 23.484375 -3.21875 
L 25.09375 0.875 
L 2.984375 54.6875 
L 12.5 54.6875 
L 29.59375 11.921875 
L 46.6875 54.6875 
L 56.203125 54.6875 
z
" id="DejaVuSans-121"/>
       </defs>
       <use xlink:href="#DejaVuSans-83"/>
       <use x="63.476562" xlink:href="#DejaVuSans-117"/>
       <use x="126.855469" xlink:href="#DejaVuSans-110"/>
       <use x="190.234375" xlink:href="#DejaVuSans-100"/>
       <use x="253.710938" xlink:href="#DejaVuSans-97"/>
       <use x="314.990234" xlink:href="#DejaVuSans-121"/>
      </g>
     </g>
    </g>
    <g id="xtick_2">
     <g id="line2d_2">
      <g>
       <use style="stroke:#000000;stroke-width:0.8;" x="237.020817" xlink:href="#md894459b5f" y="522.837656"/>
      </g>
     </g>
     <g id="text_2">
      <!-- Monday -->
      <g transform="translate(217.280973 537.436094)scale(0.1 -0.1)">
       <defs>
        <path d="M 9.8125 72.90625 
L 24.515625 72.90625 
L 43.109375 23.296875 
L 61.8125 72.90625 
L 76.515625 72.90625 
L 76.515625 0 
L 66.890625 0 
L 66.890625 64.015625 
L 48.09375 14.015625 
L 38.1875 14.015625 
L 19.390625 64.015625 
L 19.390625 0 
L 9.8125 0 
z
" id="DejaVuSans-77"/>
        <path d="M 30.609375 48.390625 
Q 23.390625 48.390625 19.1875 42.75 
Q 14.984375 37.109375 14.984375 27.296875 
Q 14.984375 17.484375 19.15625 11.84375 
Q 23.34375 6.203125 30.609375 6.203125 
Q 37.796875 6.203125 41.984375 11.859375 
Q 46.1875 17.53125 46.1875 27.296875 
Q 46.1875 37.015625 41.984375 42.703125 
Q 37.796875 48.390625 30.609375 48.390625 
z
M 30.609375 56 
Q 42.328125 56 49.015625 48.375 
Q 55.71875 40.765625 55.71875 27.296875 
Q 55.71875 13.875 49.015625 6.21875 
Q 42.328125 -1.421875 30.609375 -1.421875 
Q 18.84375 -1.421875 12.171875 6.21875 
Q 5.515625 13.875 5.515625 27.296875 
Q 5.515625 40.765625 12.171875 48.375 
Q 18.84375 56 30.609375 56 
z
" id="DejaVuSans-111"/>
       </defs>
       <use xlink:href="#DejaVuSans-77"/>
       <use x="86.279297" xlink:href="#DejaVuSans-111"/>
       <use x="147.460938" xlink:href="#DejaVuSans-110"/>
       <use x="210.839844" xlink:href="#DejaVuSans-100"/>
       <use x="274.316406" xlink:href="#DejaVuSans-97"/>
       <use x="335.595703" xlink:href="#DejaVuSans-121"/>
      </g>
     </g>
    </g>
    <g id="xtick_3">
     <g id="line2d_3">
      <g>
       <use style="stroke:#000000;stroke-width:0.8;" x="337.904122" xlink:href="#md894459b5f" y="522.837656"/>
      </g>
     </g>
     <g id="text_3">
      <!-- Tuesday -->
      <g transform="translate(317.558809 537.436094)scale(0.1 -0.1)">
       <defs>
        <path d="M -0.296875 72.90625 
L 61.375 72.90625 
L 61.375 64.59375 
L 35.5 64.59375 
L 35.5 0 
L 25.59375 0 
L 25.59375 64.59375 
L -0.296875 64.59375 
z
" id="DejaVuSans-84"/>
        <path d="M 56.203125 29.59375 
L 56.203125 25.203125 
L 14.890625 25.203125 
Q 15.484375 15.921875 20.484375 11.0625 
Q 25.484375 6.203125 34.421875 6.203125 
Q 39.59375 6.203125 44.453125 7.46875 
Q 49.3125 8.734375 54.109375 11.28125 
L 54.109375 2.78125 
Q 49.265625 0.734375 44.1875 -0.34375 
Q 39.109375 -1.421875 33.890625 -1.421875 
Q 20.796875 -1.421875 13.15625 6.1875 
Q 5.515625 13.8125 5.515625 26.8125 
Q 5.515625 40.234375 12.765625 48.109375 
Q 20.015625 56 32.328125 56 
Q 43.359375 56 49.78125 48.890625 
Q 56.203125 41.796875 56.203125 29.59375 
z
M 47.21875 32.234375 
Q 47.125 39.59375 43.09375 43.984375 
Q 39.0625 48.390625 32.421875 48.390625 
Q 24.90625 48.390625 20.390625 44.140625 
Q 15.875 39.890625 15.1875 32.171875 
z
" id="DejaVuSans-101"/>
        <path d="M 44.28125 53.078125 
L 44.28125 44.578125 
Q 40.484375 46.53125 36.375 47.5 
Q 32.28125 48.484375 27.875 48.484375 
Q 21.1875 48.484375 17.84375 46.4375 
Q 14.5 44.390625 14.5 40.28125 
Q 14.5 37.15625 16.890625 35.375 
Q 19.28125 33.59375 26.515625 31.984375 
L 29.59375 31.296875 
Q 39.15625 29.25 43.1875 25.515625 
Q 47.21875 21.78125 47.21875 15.09375 
Q 47.21875 7.46875 41.1875 3.015625 
Q 35.15625 -1.421875 24.609375 -1.421875 
Q 20.21875 -1.421875 15.453125 -0.5625 
Q 10.6875 0.296875 5.421875 2 
L 5.421875 11.28125 
Q 10.40625 8.6875 15.234375 7.390625 
Q 20.0625 6.109375 24.8125 6.109375 
Q 31.15625 6.109375 34.5625 8.28125 
Q 37.984375 10.453125 37.984375 14.40625 
Q 37.984375 18.0625 35.515625 20.015625 
Q 33.0625 21.96875 24.703125 23.78125 
L 21.578125 24.515625 
Q 13.234375 26.265625 9.515625 29.90625 
Q 5.8125 33.546875 5.8125 39.890625 
Q 5.8125 47.609375 11.28125 51.796875 
Q 16.75 56 26.8125 56 
Q 31.78125 56 36.171875 55.265625 
Q 40.578125 54.546875 44.28125 53.078125 
z
" id="DejaVuSans-115"/>
       </defs>
       <use xlink:href="#DejaVuSans-84"/>
       <use x="45.958984" xlink:href="#DejaVuSans-117"/>
       <use x="109.337891" xlink:href="#DejaVuSans-101"/>
       <use x="170.861328" xlink:href="#DejaVuSans-115"/>
       <use x="222.960938" xlink:href="#DejaVuSans-100"/>
       <use x="286.4375" xlink:href="#DejaVuSans-97"/>
       <use x="347.716797" xlink:href="#DejaVuSans-121"/>
      </g>
     </g>
    </g>
    <g id="xtick_4">
     <g id="line2d_4">
      <g>
       <use style="stroke:#000000;stroke-width:0.8;" x="438.787426" xlink:href="#md894459b5f" y="522.837656"/>
      </g>
     </g>
     <g id="text_4">
      <!-- Wednesday -->
      <g transform="translate(409.838989 537.436094)scale(0.1 -0.1)">
       <defs>
        <path d="M 3.328125 72.90625 
L 13.28125 72.90625 
L 28.609375 11.28125 
L 43.890625 72.90625 
L 54.984375 72.90625 
L 70.3125 11.28125 
L 85.59375 72.90625 
L 95.609375 72.90625 
L 77.296875 0 
L 64.890625 0 
L 49.515625 63.28125 
L 33.984375 0 
L 21.578125 0 
z
" id="DejaVuSans-87"/>
       </defs>
       <use xlink:href="#DejaVuSans-87"/>
       <use x="93.001953" xlink:href="#DejaVuSans-101"/>
       <use x="154.525391" xlink:href="#DejaVuSans-100"/>
       <use x="218.001953" xlink:href="#DejaVuSans-110"/>
       <use x="281.380859" xlink:href="#DejaVuSans-101"/>
       <use x="342.904297" xlink:href="#DejaVuSans-115"/>
       <use x="395.003906" xlink:href="#DejaVuSans-100"/>
       <use x="458.480469" xlink:href="#DejaVuSans-97"/>
       <use x="519.759766" xlink:href="#DejaVuSans-121"/>
      </g>
     </g>
    </g>
    <g id="xtick_5">
     <g id="line2d_5">
      <g>
       <use style="stroke:#000000;stroke-width:0.8;" x="539.670731" xlink:href="#md894459b5f" y="522.837656"/>
      </g>
     </g>
     <g id="text_5">
      <!-- Thursday -->
      <g transform="translate(516.421512 537.436094)scale(0.1 -0.1)">
       <defs>
        <path d="M 54.890625 33.015625 
L 54.890625 0 
L 45.90625 0 
L 45.90625 32.71875 
Q 45.90625 40.484375 42.875 44.328125 
Q 39.84375 48.1875 33.796875 48.1875 
Q 26.515625 48.1875 22.3125 43.546875 
Q 18.109375 38.921875 18.109375 30.90625 
L 18.109375 0 
L 9.078125 0 
L 9.078125 75.984375 
L 18.109375 75.984375 
L 18.109375 46.1875 
Q 21.34375 51.125 25.703125 53.5625 
Q 30.078125 56 35.796875 56 
Q 45.21875 56 50.046875 50.171875 
Q 54.890625 44.34375 54.890625 33.015625 
z
" id="DejaVuSans-104"/>
        <path d="M 41.109375 46.296875 
Q 39.59375 47.171875 37.8125 47.578125 
Q 36.03125 48 33.890625 48 
Q 26.265625 48 22.1875 43.046875 
Q 18.109375 38.09375 18.109375 28.8125 
L 18.109375 0 
L 9.078125 0 
L 9.078125 54.6875 
L 18.109375 54.6875 
L 18.109375 46.1875 
Q 20.953125 51.171875 25.484375 53.578125 
Q 30.03125 56 36.53125 56 
Q 37.453125 56 38.578125 55.875 
Q 39.703125 55.765625 41.0625 55.515625 
z
" id="DejaVuSans-114"/>
       </defs>
       <use xlink:href="#DejaVuSans-84"/>
       <use x="61.083984" xlink:href="#DejaVuSans-104"/>
       <use x="124.462891" xlink:href="#DejaVuSans-117"/>
       <use x="187.841797" xlink:href="#DejaVuSans-114"/>
       <use x="228.955078" xlink:href="#DejaVuSans-115"/>
       <use x="281.054688" xlink:href="#DejaVuSans-100"/>
       <use x="344.53125" xlink:href="#DejaVuSans-97"/>
       <use x="405.810547" xlink:href="#DejaVuSans-121"/>
      </g>
     </g>
    </g>
    <g id="xtick_6">
     <g id="line2d_6">
      <g>
       <use style="stroke:#000000;stroke-width:0.8;" x="640.554035" xlink:href="#md894459b5f" y="522.837656"/>
      </g>
     </g>
     <g id="text_6">
      <!-- Friday -->
      <g transform="translate(625.398566 537.436094)scale(0.1 -0.1)">
       <defs>
        <path d="M 9.8125 72.90625 
L 51.703125 72.90625 
L 51.703125 64.59375 
L 19.671875 64.59375 
L 19.671875 43.109375 
L 48.578125 43.109375 
L 48.578125 34.8125 
L 19.671875 34.8125 
L 19.671875 0 
L 9.8125 0 
z
" id="DejaVuSans-70"/>
        <path d="M 9.421875 54.6875 
L 18.40625 54.6875 
L 18.40625 0 
L 9.421875 0 
z
M 9.421875 75.984375 
L 18.40625 75.984375 
L 18.40625 64.59375 
L 9.421875 64.59375 
z
" id="DejaVuSans-105"/>
       </defs>
       <use xlink:href="#DejaVuSans-70"/>
       <use x="50.269531" xlink:href="#DejaVuSans-114"/>
       <use x="91.382812" xlink:href="#DejaVuSans-105"/>
       <use x="119.166016" xlink:href="#DejaVuSans-100"/>
       <use x="182.642578" xlink:href="#DejaVuSans-97"/>
       <use x="243.921875" xlink:href="#DejaVuSans-121"/>
      </g>
     </g>
    </g>
    <g id="xtick_7">
     <g id="line2d_7">
      <g>
       <use style="stroke:#000000;stroke-width:0.8;" x="741.43734" xlink:href="#md894459b5f" y="522.837656"/>
      </g>
     </g>
     <g id="text_7">
      <!-- Saturday -->
      <g transform="translate(718.904527 537.436094)scale(0.1 -0.1)">
       <defs>
        <path d="M 18.3125 70.21875 
L 18.3125 54.6875 
L 36.8125 54.6875 
L 36.8125 47.703125 
L 18.3125 47.703125 
L 18.3125 18.015625 
Q 18.3125 11.328125 20.140625 9.421875 
Q 21.96875 7.515625 27.59375 7.515625 
L 36.8125 7.515625 
L 36.8125 0 
L 27.59375 0 
Q 17.1875 0 13.234375 3.875 
Q 9.28125 7.765625 9.28125 18.015625 
L 9.28125 47.703125 
L 2.6875 47.703125 
L 2.6875 54.6875 
L 9.28125 54.6875 
L 9.28125 70.21875 
z
" id="DejaVuSans-116"/>
       </defs>
       <use xlink:href="#DejaVuSans-83"/>
       <use x="63.476562" xlink:href="#DejaVuSans-97"/>
       <use x="124.755859" xlink:href="#DejaVuSans-116"/>
       <use x="163.964844" xlink:href="#DejaVuSans-117"/>
       <use x="227.34375" xlink:href="#DejaVuSans-114"/>
       <use x="266.707031" xlink:href="#DejaVuSans-100"/>
       <use x="330.183594" xlink:href="#DejaVuSans-97"/>
       <use x="391.462891" xlink:href="#DejaVuSans-121"/>
      </g>
     </g>
    </g>
    <g id="text_8">
     <!-- Date &amp; Time -->
     <g transform="translate(372.041406 551.114219)scale(0.1 -0.1)">
      <defs>
       <path d="M 19.671875 64.796875 
L 19.671875 8.109375 
L 31.59375 8.109375 
Q 46.6875 8.109375 53.6875 14.9375 
Q 60.6875 21.78125 60.6875 36.53125 
Q 60.6875 51.171875 53.6875 57.984375 
Q 46.6875 64.796875 31.59375 64.796875 
z
M 9.8125 72.90625 
L 30.078125 72.90625 
Q 51.265625 72.90625 61.171875 64.09375 
Q 71.09375 55.28125 71.09375 36.53125 
Q 71.09375 17.671875 61.125 8.828125 
Q 51.171875 0 30.078125 0 
L 9.8125 0 
z
" id="DejaVuSans-68"/>
       <path id="DejaVuSans-32"/>
       <path d="M 24.3125 39.203125 
Q 19.875 35.25 17.796875 31.3125 
Q 15.71875 27.390625 15.71875 23.09375 
Q 15.71875 15.96875 20.890625 11.234375 
Q 26.078125 6.5 33.890625 6.5 
Q 38.53125 6.5 42.578125 8.03125 
Q 46.625 9.578125 50.203125 12.703125 
z
M 31.203125 44.671875 
L 56 19.28125 
Q 58.890625 23.640625 60.5 28.59375 
Q 62.109375 33.546875 62.40625 39.109375 
L 71.484375 39.109375 
Q 70.90625 32.671875 68.359375 26.359375 
Q 65.828125 20.0625 61.28125 13.921875 
L 74.90625 0 
L 62.59375 0 
L 55.609375 7.171875 
Q 50.53125 2.828125 44.96875 0.703125 
Q 39.40625 -1.421875 33.015625 -1.421875 
Q 21.234375 -1.421875 13.765625 5.296875 
Q 6.296875 12.015625 6.296875 22.515625 
Q 6.296875 28.765625 9.5625 34.25 
Q 12.84375 39.75 19.390625 44.578125 
Q 17.046875 47.65625 15.8125 50.703125 
Q 14.59375 53.765625 14.59375 56.6875 
Q 14.59375 64.59375 20.015625 69.40625 
Q 25.4375 74.21875 34.421875 74.21875 
Q 38.484375 74.21875 42.5 73.34375 
Q 46.53125 72.46875 50.6875 70.703125 
L 50.6875 61.8125 
Q 46.4375 64.109375 42.578125 65.296875 
Q 38.71875 66.5 35.40625 66.5 
Q 30.28125 66.5 27.078125 63.78125 
Q 23.875 61.078125 23.875 56.78125 
Q 23.875 54.296875 25.3125 51.78125 
Q 26.765625 49.265625 31.203125 44.671875 
z
" id="DejaVuSans-38"/>
       <path d="M 52 44.1875 
Q 55.375 50.25 60.0625 53.125 
Q 64.75 56 71.09375 56 
Q 79.640625 56 84.28125 50.015625 
Q 88.921875 44.046875 88.921875 33.015625 
L 88.921875 0 
L 79.890625 0 
L 79.890625 32.71875 
Q 79.890625 40.578125 77.09375 44.375 
Q 74.3125 48.1875 68.609375 48.1875 
Q 61.625 48.1875 57.5625 43.546875 
Q 53.515625 38.921875 53.515625 30.90625 
L 53.515625 0 
L 44.484375 0 
L 44.484375 32.71875 
Q 44.484375 40.625 41.703125 44.40625 
Q 38.921875 48.1875 33.109375 48.1875 
Q 26.21875 48.1875 22.15625 43.53125 
Q 18.109375 38.875 18.109375 30.90625 
L 18.109375 0 
L 9.078125 0 
L 9.078125 54.6875 
L 18.109375 54.6875 
L 18.109375 46.1875 
Q 21.1875 51.21875 25.484375 53.609375 
Q 29.78125 56 35.6875 56 
Q 41.65625 56 45.828125 52.96875 
Q 50 49.953125 52 44.1875 
z
" id="DejaVuSans-109"/>
      </defs>
      <use xlink:href="#DejaVuSans-68"/>
      <use x="77.001953" xlink:href="#DejaVuSans-97"/>
      <use x="138.28125" xlink:href="#DejaVuSans-116"/>
      <use x="177.490234" xlink:href="#DejaVuSans-101"/>
      <use x="239.013672" xlink:href="#DejaVuSans-32"/>
      <use x="270.800781" xlink:href="#DejaVuSans-38"/>
      <use x="348.779297" xlink:href="#DejaVuSans-32"/>
      <use x="380.566406" xlink:href="#DejaVuSans-84"/>
      <use x="438.525391" xlink:href="#DejaVuSans-105"/>
      <use x="466.308594" xlink:href="#DejaVuSans-109"/>
      <use x="563.720703" xlink:href="#DejaVuSans-101"/>
     </g>
    </g>
   </g>
   <g id="matplotlib.axis_2">
    <g id="ytick_1">
     <g id="line2d_8">
      <defs>
       <path d="M 0 0 
L -3.5 0 
" id="me54aef5270" style="stroke:#000000;stroke-width:0.8;"/>
      </defs>
      <g>
       <use style="stroke:#000000;stroke-width:0.8;" x="40.603125" xlink:href="#me54aef5270" y="522.120296"/>
      </g>
     </g>
     <g id="text_9">
      <!-- 0 -->
      <g transform="translate(27.240625 525.919514)scale(0.1 -0.1)">
       <defs>
        <path d="M 31.78125 66.40625 
Q 24.171875 66.40625 20.328125 58.90625 
Q 16.5 51.421875 16.5 36.375 
Q 16.5 21.390625 20.328125 13.890625 
Q 24.171875 6.390625 31.78125 6.390625 
Q 39.453125 6.390625 43.28125 13.890625 
Q 47.125 21.390625 47.125 36.375 
Q 47.125 51.421875 43.28125 58.90625 
Q 39.453125 66.40625 31.78125 66.40625 
z
M 31.78125 74.21875 
Q 44.046875 74.21875 50.515625 64.515625 
Q 56.984375 54.828125 56.984375 36.375 
Q 56.984375 17.96875 50.515625 8.265625 
Q 44.046875 -1.421875 31.78125 -1.421875 
Q 19.53125 -1.421875 13.0625 8.265625 
Q 6.59375 17.96875 6.59375 36.375 
Q 6.59375 54.828125 13.0625 64.515625 
Q 19.53125 74.21875 31.78125 74.21875 
z
" id="DejaVuSans-48"/>
       </defs>
       <use xlink:href="#DejaVuSans-48"/>
      </g>
     </g>
    </g>
    <g id="ytick_2">
     <g id="line2d_9">
      <g>
       <use style="stroke:#000000;stroke-width:0.8;" x="40.603125" xlink:href="#me54aef5270" y="450.384225"/>
      </g>
     </g>
     <g id="text_10">
      <!-- 10 -->
      <g transform="translate(20.878125 454.183444)scale(0.1 -0.1)">
       <defs>
        <path d="M 12.40625 8.296875 
L 28.515625 8.296875 
L 28.515625 63.921875 
L 10.984375 60.40625 
L 10.984375 69.390625 
L 28.421875 72.90625 
L 38.28125 72.90625 
L 38.28125 8.296875 
L 54.390625 8.296875 
L 54.390625 0 
L 12.40625 0 
z
" id="DejaVuSans-49"/>
       </defs>
       <use xlink:href="#DejaVuSans-49"/>
       <use x="63.623047" xlink:href="#DejaVuSans-48"/>
      </g>
     </g>
    </g>
    <g id="ytick_3">
     <g id="line2d_10">
      <g>
       <use style="stroke:#000000;stroke-width:0.8;" x="40.603125" xlink:href="#me54aef5270" y="378.648155"/>
      </g>
     </g>
     <g id="text_11">
      <!-- 20 -->
      <g transform="translate(20.878125 382.447374)scale(0.1 -0.1)">
       <defs>
        <path d="M 19.1875 8.296875 
L 53.609375 8.296875 
L 53.609375 0 
L 7.328125 0 
L 7.328125 8.296875 
Q 12.9375 14.109375 22.625 23.890625 
Q 32.328125 33.6875 34.8125 36.53125 
Q 39.546875 41.84375 41.421875 45.53125 
Q 43.3125 49.21875 43.3125 52.78125 
Q 43.3125 58.59375 39.234375 62.25 
Q 35.15625 65.921875 28.609375 65.921875 
Q 23.96875 65.921875 18.8125 64.3125 
Q 13.671875 62.703125 7.8125 59.421875 
L 7.8125 69.390625 
Q 13.765625 71.78125 18.9375 73 
Q 24.125 74.21875 28.421875 74.21875 
Q 39.75 74.21875 46.484375 68.546875 
Q 53.21875 62.890625 53.21875 53.421875 
Q 53.21875 48.921875 51.53125 44.890625 
Q 49.859375 40.875 45.40625 35.40625 
Q 44.1875 33.984375 37.640625 27.21875 
Q 31.109375 20.453125 19.1875 8.296875 
z
" id="DejaVuSans-50"/>
       </defs>
       <use xlink:href="#DejaVuSans-50"/>
       <use x="63.623047" xlink:href="#DejaVuSans-48"/>
      </g>
     </g>
    </g>
    <g id="ytick_4">
     <g id="line2d_11">
      <g>
       <use style="stroke:#000000;stroke-width:0.8;" x="40.603125" xlink:href="#me54aef5270" y="306.912084"/>
      </g>
     </g>
     <g id="text_12">
      <!-- 30 -->
      <g transform="translate(20.878125 310.711303)scale(0.1 -0.1)">
       <defs>
        <path d="M 40.578125 39.3125 
Q 47.65625 37.796875 51.625 33 
Q 55.609375 28.21875 55.609375 21.1875 
Q 55.609375 10.40625 48.1875 4.484375 
Q 40.765625 -1.421875 27.09375 -1.421875 
Q 22.515625 -1.421875 17.65625 -0.515625 
Q 12.796875 0.390625 7.625 2.203125 
L 7.625 11.71875 
Q 11.71875 9.328125 16.59375 8.109375 
Q 21.484375 6.890625 26.8125 6.890625 
Q 36.078125 6.890625 40.9375 10.546875 
Q 45.796875 14.203125 45.796875 21.1875 
Q 45.796875 27.640625 41.28125 31.265625 
Q 36.765625 34.90625 28.71875 34.90625 
L 20.21875 34.90625 
L 20.21875 43.015625 
L 29.109375 43.015625 
Q 36.375 43.015625 40.234375 45.921875 
Q 44.09375 48.828125 44.09375 54.296875 
Q 44.09375 59.90625 40.109375 62.90625 
Q 36.140625 65.921875 28.71875 65.921875 
Q 24.65625 65.921875 20.015625 65.03125 
Q 15.375 64.15625 9.8125 62.3125 
L 9.8125 71.09375 
Q 15.4375 72.65625 20.34375 73.4375 
Q 25.25 74.21875 29.59375 74.21875 
Q 40.828125 74.21875 47.359375 69.109375 
Q 53.90625 64.015625 53.90625 55.328125 
Q 53.90625 49.265625 50.4375 45.09375 
Q 46.96875 40.921875 40.578125 39.3125 
z
" id="DejaVuSans-51"/>
       </defs>
       <use xlink:href="#DejaVuSans-51"/>
       <use x="63.623047" xlink:href="#DejaVuSans-48"/>
      </g>
     </g>
    </g>
    <g id="ytick_5">
     <g id="line2d_12">
      <g>
       <use style="stroke:#000000;stroke-width:0.8;" x="40.603125" xlink:href="#me54aef5270" y="235.176014"/>
      </g>
     </g>
     <g id="text_13">
      <!-- 40 -->
      <g transform="translate(20.878125 238.975233)scale(0.1 -0.1)">
       <defs>
        <path d="M 37.796875 64.3125 
L 12.890625 25.390625 
L 37.796875 25.390625 
z
M 35.203125 72.90625 
L 47.609375 72.90625 
L 47.609375 25.390625 
L 58.015625 25.390625 
L 58.015625 17.1875 
L 47.609375 17.1875 
L 47.609375 0 
L 37.796875 0 
L 37.796875 17.1875 
L 4.890625 17.1875 
L 4.890625 26.703125 
z
" id="DejaVuSans-52"/>
       </defs>
       <use xlink:href="#DejaVuSans-52"/>
       <use x="63.623047" xlink:href="#DejaVuSans-48"/>
      </g>
     </g>
    </g>
    <g id="ytick_6">
     <g id="line2d_13">
      <g>
       <use style="stroke:#000000;stroke-width:0.8;" x="40.603125" xlink:href="#me54aef5270" y="163.439944"/>
      </g>
     </g>
     <g id="text_14">
      <!-- 50 -->
      <g transform="translate(20.878125 167.239162)scale(0.1 -0.1)">
       <defs>
        <path d="M 10.796875 72.90625 
L 49.515625 72.90625 
L 49.515625 64.59375 
L 19.828125 64.59375 
L 19.828125 46.734375 
Q 21.96875 47.46875 24.109375 47.828125 
Q 26.265625 48.1875 28.421875 48.1875 
Q 40.625 48.1875 47.75 41.5 
Q 54.890625 34.8125 54.890625 23.390625 
Q 54.890625 11.625 47.5625 5.09375 
Q 40.234375 -1.421875 26.90625 -1.421875 
Q 22.3125 -1.421875 17.546875 -0.640625 
Q 12.796875 0.140625 7.71875 1.703125 
L 7.71875 11.625 
Q 12.109375 9.234375 16.796875 8.0625 
Q 21.484375 6.890625 26.703125 6.890625 
Q 35.15625 6.890625 40.078125 11.328125 
Q 45.015625 15.765625 45.015625 23.390625 
Q 45.015625 31 40.078125 35.4375 
Q 35.15625 39.890625 26.703125 39.890625 
Q 22.75 39.890625 18.8125 39.015625 
Q 14.890625 38.140625 10.796875 36.28125 
z
" id="DejaVuSans-53"/>
       </defs>
       <use xlink:href="#DejaVuSans-53"/>
       <use x="63.623047" xlink:href="#DejaVuSans-48"/>
      </g>
     </g>
    </g>
    <g id="ytick_7">
     <g id="line2d_14">
      <g>
       <use style="stroke:#000000;stroke-width:0.8;" x="40.603125" xlink:href="#me54aef5270" y="91.703873"/>
      </g>
     </g>
     <g id="text_15">
      <!-- 60 -->
      <g transform="translate(20.878125 95.503092)scale(0.1 -0.1)">
       <defs>
        <path d="M 33.015625 40.375 
Q 26.375 40.375 22.484375 35.828125 
Q 18.609375 31.296875 18.609375 23.390625 
Q 18.609375 15.53125 22.484375 10.953125 
Q 26.375 6.390625 33.015625 6.390625 
Q 39.65625 6.390625 43.53125 10.953125 
Q 47.40625 15.53125 47.40625 23.390625 
Q 47.40625 31.296875 43.53125 35.828125 
Q 39.65625 40.375 33.015625 40.375 
z
M 52.59375 71.296875 
L 52.59375 62.3125 
Q 48.875 64.0625 45.09375 64.984375 
Q 41.3125 65.921875 37.59375 65.921875 
Q 27.828125 65.921875 22.671875 59.328125 
Q 17.53125 52.734375 16.796875 39.40625 
Q 19.671875 43.65625 24.015625 45.921875 
Q 28.375 48.1875 33.59375 48.1875 
Q 44.578125 48.1875 50.953125 41.515625 
Q 57.328125 34.859375 57.328125 23.390625 
Q 57.328125 12.15625 50.6875 5.359375 
Q 44.046875 -1.421875 33.015625 -1.421875 
Q 20.359375 -1.421875 13.671875 8.265625 
Q 6.984375 17.96875 6.984375 36.375 
Q 6.984375 53.65625 15.1875 63.9375 
Q 23.390625 74.21875 37.203125 74.21875 
Q 40.921875 74.21875 44.703125 73.484375 
Q 48.484375 72.75 52.59375 71.296875 
z
" id="DejaVuSans-54"/>
       </defs>
       <use xlink:href="#DejaVuSans-54"/>
       <use x="63.623047" xlink:href="#DejaVuSans-48"/>
      </g>
     </g>
    </g>
    <g id="text_16">
     <!-- Wait Time (minutes) -->
     <g transform="translate(14.798438 328.8075)rotate(-90)scale(0.1 -0.1)">
      <defs>
       <path d="M 31 75.875 
Q 24.46875 64.65625 21.28125 53.65625 
Q 18.109375 42.671875 18.109375 31.390625 
Q 18.109375 20.125 21.3125 9.0625 
Q 24.515625 -2 31 -13.1875 
L 23.1875 -13.1875 
Q 15.875 -1.703125 12.234375 9.375 
Q 8.59375 20.453125 8.59375 31.390625 
Q 8.59375 42.28125 12.203125 53.3125 
Q 15.828125 64.359375 23.1875 75.875 
z
" id="DejaVuSans-40"/>
       <path d="M 8.015625 75.875 
L 15.828125 75.875 
Q 23.140625 64.359375 26.78125 53.3125 
Q 30.421875 42.28125 30.421875 31.390625 
Q 30.421875 20.453125 26.78125 9.375 
Q 23.140625 -1.703125 15.828125 -13.1875 
L 8.015625 -13.1875 
Q 14.5 -2 17.703125 9.0625 
Q 20.90625 20.125 20.90625 31.390625 
Q 20.90625 42.671875 17.703125 53.65625 
Q 14.5 64.65625 8.015625 75.875 
z
" id="DejaVuSans-41"/>
      </defs>
      <use xlink:href="#DejaVuSans-87"/>
      <use x="92.501953" xlink:href="#DejaVuSans-97"/>
      <use x="153.78125" xlink:href="#DejaVuSans-105"/>
      <use x="181.564453" xlink:href="#DejaVuSans-116"/>
      <use x="220.773438" xlink:href="#DejaVuSans-32"/>
      <use x="252.560547" xlink:href="#DejaVuSans-84"/>
      <use x="310.519531" xlink:href="#DejaVuSans-105"/>
      <use x="338.302734" xlink:href="#DejaVuSans-109"/>
      <use x="435.714844" xlink:href="#DejaVuSans-101"/>
      <use x="497.238281" xlink:href="#DejaVuSans-32"/>
      <use x="529.025391" xlink:href="#DejaVuSans-40"/>
      <use x="568.039062" xlink:href="#DejaVuSans-109"/>
      <use x="665.451172" xlink:href="#DejaVuSans-105"/>
      <use x="693.234375" xlink:href="#DejaVuSans-110"/>
      <use x="756.613281" xlink:href="#DejaVuSans-117"/>
      <use x="819.992188" xlink:href="#DejaVuSans-116"/>
      <use x="859.201172" xlink:href="#DejaVuSans-101"/>
      <use x="920.724609" xlink:href="#DejaVuSans-115"/>
      <use x="972.824219" xlink:href="#DejaVuSans-41"/>
     </g>
    </g>
   </g>
   <g id="line2d_15">
    <path clip-path="url(#p54b0a2942f)" d="M 73.575852 486.25226 
L 76.027877 486.25226 
L 76.518282 479.078653 
L 77.008687 450.384225 
L 77.779323 414.51619 
L 78.269728 450.384225 
L 81.212158 450.384225 
L 82.473199 414.51619 
L 82.963604 450.384225 
L 85.415629 450.384225 
L 85.485687 457.557832 
L 86.186265 378.648155 
L 87.587422 378.648155 
L 88.147885 414.51619 
L 90.880141 414.51619 
L 91.370546 450.384225 
L 91.790893 450.384225 
L 92.351356 414.51619 
L 93.822571 414.51619 
L 94.593207 306.912084 
L 95.083612 199.307979 
L 97.045232 199.307979 
L 98.026042 342.78012 
L 98.796678 378.648155 
L 99.287083 378.648155 
L 100.197835 450.384225 
L 101.739108 450.384225 
L 103.000149 414.51619 
L 103.490554 414.51619 
L 103.980959 378.648155 
L 104.401306 378.648155 
L 104.961769 414.51619 
L 105.452174 414.51619 
L 105.942579 378.648155 
L 106.432984 414.51619 
L 107.20362 378.648155 
L 109.655645 378.648155 
L 110.14605 414.51619 
L 110.636455 414.51619 
L 111.407091 450.384225 
L 118.062587 450.384225 
L 119.043397 486.25226 
L 175.860314 486.25226 
L 176.420777 450.384225 
L 176.911182 486.25226 
L 177.891991 486.25226 
L 178.662628 450.384225 
L 180.063785 450.384225 
L 180.624248 414.51619 
L 182.095462 414.51619 
L 182.866099 378.648155 
L 183.846909 378.648155 
L 184.267256 235.176014 
L 185.318124 199.307979 
L 186.298934 127.571908 
L 187.06957 163.439944 
L 187.559975 163.439944 
L 188.05038 199.307979 
L 188.470727 306.912084 
L 189.03119 306.912084 
L 189.521595 342.78012 
L 190.012 342.78012 
L 190.502405 271.044049 
L 191.763446 271.044049 
L 192.253851 235.176014 
L 193.725066 235.176014 
L 194.215471 127.571908 
L 194.705876 163.439944 
L 195.476512 199.307979 
L 195.966917 235.176014 
L 196.457322 199.307979 
L 196.877669 199.307979 
L 197.438132 235.176014 
L 197.928537 163.439944 
L 198.418942 199.307979 
L 198.909347 199.307979 
L 199.679983 163.439944 
L 201.641603 163.439944 
L 202.132008 235.176014 
L 204.373859 235.176014 
L 204.864264 271.044049 
L 206.335479 306.912084 
L 206.825884 306.912084 
L 207.316289 271.044049 
L 208.086925 163.439944 
L 209.067735 163.439944 
L 209.488082 271.044049 
L 210.048545 271.044049 
L 210.53895 306.912084 
L 211.029355 306.912084 
L 211.51976 271.044049 
L 211.799991 271.044049 
L 212.780801 342.78012 
L 213.691553 378.648155 
L 214.252016 378.648155 
L 214.742421 342.78012 
L 215.232826 378.648155 
L 215.723231 378.648155 
L 216.493867 414.51619 
L 217.474677 342.78012 
L 218.455487 342.78012 
L 218.945892 306.912084 
L 219.436297 306.912084 
L 219.926702 199.307979 
L 220.697338 342.78012 
L 221.187743 342.78012 
L 221.397917 407.342583 
L 221.678148 342.78012 
L 222.098495 378.648155 
L 222.658958 378.648155 
L 223.639768 450.384225 
L 223.849941 493.425867 
L 223.990057 450.384225 
L 225.391214 450.384225 
L 225.881619 486.25226 
L 276.323271 486.25226 
L 276.463387 450.384225 
L 278.775296 450.384225 
L 279.545932 414.51619 
L 280.947089 414.51619 
L 281.507552 378.648155 
L 282.488362 378.648155 
L 282.978767 342.78012 
L 283.749403 342.78012 
L 284.239808 199.307979 
L 284.730213 199.307979 
L 285.15056 127.571908 
L 285.711023 199.307979 
L 286.201428 199.307979 
L 286.691833 235.176014 
L 287.182238 235.176014 
L 287.462469 199.307979 
L 287.952874 163.439944 
L 288.09299 163.439944 
L 288.09299 235.176014 
L 288.933684 199.307979 
L 289.354031 199.307979 
L 289.354031 199.307979 
L 289.914494 55.835838 
L 290.895304 127.571908 
L 291.385709 127.571908 
L 292.156345 199.307979 
L 293.137155 163.439944 
L 293.557502 235.176014 
L 294.117965 199.307979 
L 294.60837 199.307979 
L 295.098775 163.439944 
L 295.58918 163.439944 
L 296.359816 271.044049 
L 296.920279 306.912084 
L 297.340626 271.044049 
L 297.760973 271.044049 
L 298.321436 199.307979 
L 298.811841 91.703873 
L 299.792651 127.571908 
L 300.563287 127.571908 
L 301.053692 163.439944 
L 303.015312 163.439944 
L 303.505717 306.912084 
L 304.276354 342.78012 
L 304.766758 342.78012 
L 305.257163 271.044049 
L 305.747568 235.176014 
L 306.167915 163.439944 
L 306.728378 235.176014 
L 307.218783 235.176014 
L 307.709188 306.912084 
L 308.199593 306.912084 
L 308.970229 235.176014 
L 310.371386 235.176014 
L 310.931849 199.307979 
L 311.422254 199.307979 
L 311.912659 91.703873 
L 313.173701 91.703873 
L 313.664105 199.307979 
L 314.15451 199.307979 
L 314.574858 306.912084 
L 315.625725 342.78012 
L 316.11613 342.78012 
L 316.606535 163.439944 
L 317.377172 306.912084 
L 317.867576 306.912084 
L 318.778329 271.044049 
L 319.338791 271.044049 
L 319.829196 306.912084 
L 320.319601 271.044049 
L 320.810006 271.044049 
L 321.580643 342.78012 
L 322.071048 306.912084 
L 322.561452 306.912084 
L 322.9818 378.648155 
L 324.523072 486.25226 
L 325.013477 486.25226 
L 326.274519 450.384225 
L 328.726543 450.384225 
L 329.216948 486.25226 
L 330.968395 486.25226 
L 331.388742 450.384225 
L 334.191056 450.384225 
L 334.681461 486.25226 
L 378.677791 486.25226 
L 379.658601 450.384225 
L 381.830394 450.384225 
L 382.390857 414.51619 
L 382.881262 414.51619 
L 383.371667 378.648155 
L 383.651898 378.648155 
L 383.721956 414.51619 
L 383.862072 378.648155 
L 384.632708 342.78012 
L 385.613518 342.78012 
L 386.033865 271.044049 
L 386.594328 235.176014 
L 387.084733 235.176014 
L 387.575138 271.044049 
L 388.065543 235.176014 
L 388.836179 199.307979 
L 389.326584 306.912084 
L 389.816989 235.176014 
L 390.237336 199.307979 
L 392.269014 199.307979 
L 392.899534 271.044049 
L 394.440807 271.044049 
L 395.491675 199.307979 
L 395.98208 127.571908 
L 397.733526 127.571908 
L 398.223931 163.439944 
L 398.644278 163.439944 
L 399.204741 199.307979 
L 400.185551 199.307979 
L 400.675956 235.176014 
L 401.446592 199.307979 
L 401.936997 199.307979 
L 402.427402 271.044049 
L 402.847749 306.912084 
L 403.898617 271.044049 
L 404.389022 235.176014 
L 404.879427 235.176014 
L 405.650063 199.307979 
L 406.630873 235.176014 
L 407.05122 235.176014 
L 407.611683 199.307979 
L 410.343939 199.307979 
L 410.834344 163.439944 
L 411.254691 199.307979 
L 412.305559 235.176014 
L 412.795964 235.176014 
L 413.5666 163.439944 
L 414.057005 271.044049 
L 414.54741 271.044049 
L 415.037815 235.176014 
L 415.458162 235.176014 
L 416.018625 163.439944 
L 416.999435 306.912084 
L 417.48984 342.78012 
L 418.260476 306.912084 
L 418.750881 306.912084 
L 419.241286 271.044049 
L 419.661633 271.044049 
L 420.222096 342.78012 
L 420.572385 357.127334 
L 420.712501 342.78012 
L 421.202906 342.78012 
L 421.693311 378.648155 
L 422.463947 235.176014 
L 423.444757 235.176014 
L 423.865104 199.307979 
L 424.425567 199.307979 
L 425.406377 271.044049 
L 425.896782 378.648155 
L 426.667418 378.648155 
L 427.648228 414.51619 
L 428.068575 414.51619 
L 428.629038 342.78012 
L 429.119443 342.78012 
L 430.100253 306.912084 
L 431.361294 414.51619 
L 432.272046 486.25226 
L 432.272046 500.599474 
L 432.48222 486.25226 
L 433.813319 486.25226 
L 434.303724 450.384225 
L 434.583955 450.384225 
L 435.564765 414.51619 
L 436.05517 414.51619 
L 436.475517 450.384225 
L 439.277831 450.384225 
L 439.768236 486.25226 
L 478.08988 486.25226 
L 478.580285 500.599474 
L 479.07069 486.25226 
L 480.0515 486.25226 
L 480.541905 450.384225 
L 483.274161 450.384225 
L 483.764566 414.51619 
L 484.254971 342.78012 
L 484.745376 342.78012 
L 484.95555 306.912084 
L 486.006417 306.912084 
L 486.917169 342.78012 
L 487.477632 342.78012 
L 488.458442 378.648155 
L 488.948847 414.51619 
L 490.209888 414.51619 
L 492.171508 342.78012 
L 492.661913 342.78012 
L 493.08226 371.474548 
L 493.152318 306.912084 
L 494.903764 306.912084 
L 495.324111 342.78012 
L 495.884574 342.78012 
L 497.355789 306.912084 
L 498.126425 306.912084 
L 498.61683 342.78012 
L 499.107235 306.912084 
L 499.527582 414.51619 
L 500.088045 450.384225 
L 500.718566 450.384225 
L 500.718566 464.731439 
L 501.55926 450.384225 
L 502.820301 450.384225 
L 503.310706 486.25226 
L 505.272326 414.51619 
L 505.762731 342.78012 
L 506.533368 306.912084 
L 507.023772 306.912084 
L 507.514177 342.78012 
L 507.934525 306.912084 
L 508.494987 271.044049 
L 508.985392 306.912084 
L 509.475797 199.307979 
L 509.966202 342.78012 
L 510.736839 342.78012 
L 511.227243 378.648155 
L 513.188863 378.648155 
L 513.679268 414.51619 
L 515.360657 414.51619 
L 515.430715 500.599474 
L 515.430715 414.51619 
L 515.921119 450.384225 
L 516.341467 450.384225 
L 516.901929 414.51619 
L 519.634186 414.51619 
L 520.12459 450.384225 
L 523.837657 450.384225 
L 524.328061 486.25226 
L 578.973185 486.25226 
L 579.393532 450.384225 
L 579.533648 486.25226 
L 579.533648 436.037011 
L 579.953995 378.648155 
L 580.654573 378.648155 
L 580.934805 450.384225 
L 581.42521 414.51619 
L 581.705441 414.51619 
L 581.985672 378.648155 
L 581.985672 450.384225 
L 582.195846 378.648155 
L 582.686251 378.648155 
L 582.896424 414.51619 
L 582.896424 464.731439 
L 583.176656 450.384225 
L 583.597003 414.51619 
L 584.157466 450.384225 
L 584.647871 450.384225 
L 585.138276 414.51619 
L 586.399317 414.51619 
L 586.889722 378.648155 
L 587.800474 342.78012 
L 589.832152 342.78012 
L 590.112383 235.176014 
L 591.093193 235.176014 
L 591.373424 163.439944 
L 591.583598 235.176014 
L 592.003945 235.176014 
L 592.564408 342.78012 
L 594.315854 342.78012 
L 595.296664 306.912084 
L 595.787069 306.912084 
L 596.207416 342.78012 
L 597.748689 342.78012 
L 598.239094 306.912084 
L 599.00973 271.044049 
L 599.500135 235.176014 
L 599.99054 342.78012 
L 601.461755 342.78012 
L 601.95216 378.648155 
L 603.703606 378.648155 
L 604.194011 450.384225 
L 605.174821 450.384225 
L 605.665226 414.51619 
L 606.155631 414.51619 
L 606.646036 306.912084 
L 607.416672 199.307979 
L 608.397482 306.912084 
L 608.817829 414.51619 
L 609.378292 450.384225 
L 609.868697 450.384225 
L 610.849507 378.648155 
L 614.562573 378.648155 
L 615.052978 414.51619 
L 621.007895 414.51619 
L 621.428242 450.384225 
L 628.924432 450.384225 
L 629.414837 486.25226 
L 678.875679 486.25226 
L 679.366084 450.384225 
L 679.856489 486.25226 
L 680.837299 486.25226 
L 680.977415 457.557832 
L 681.327704 486.25226 
L 681.818109 450.384225 
L 683.07915 378.648155 
L 683.569555 342.78012 
L 684.05996 342.78012 
L 684.480307 306.912084 
L 685.04077 342.78012 
L 686.511985 378.648155 
L 687.282621 414.51619 
L 688.263431 378.648155 
L 688.683778 306.912084 
L 689.244241 271.044049 
L 689.734646 271.044049 
L 690.225051 342.78012 
L 690.715456 342.78012 
L 690.995688 306.912084 
L 691.486092 271.044049 
L 691.976497 306.912084 
L 692.887249 235.176014 
L 693.938117 271.044049 
L 694.428522 271.044049 
L 694.918927 235.176014 
L 695.689563 342.78012 
L 696.179968 306.912084 
L 696.4602 271.044049 
L 696.670373 271.044049 
L 697.09072 306.912084 
L 697.651183 235.176014 
L 698.141588 235.176014 
L 699.05234 364.300941 
L 699.122398 306.912084 
L 699.893035 306.912084 
L 700.873844 378.648155 
L 704.096506 378.648155 
L 704.516853 471.905046 
L 704.58691 414.51619 
L 705.497663 414.51619 
L 706.058125 450.384225 
L 706.54853 450.384225 
L 707.52934 378.648155 
L 708.299977 306.912084 
L 709.280786 306.912084 
L 709.701134 342.78012 
L 710.752001 414.51619 
L 716.706919 414.51619 
L 717.197324 450.384225 
L 720.91039 450.384225 
L 721.400795 414.51619 
L 721.610968 457.557832 
L 721.8912 414.51619 
L 722.311547 414.51619 
L 722.872009 450.384225 
L 725.113861 450.384225 
L 725.744381 414.51619 
L 726.515018 414.51619 
L 728.05629 378.648155 
L 728.546695 378.648155 
L 728.756869 450.384225 
L 729.317332 486.25226 
L 733.030398 486.25226 
L 733.030398 486.25226 
" style="fill:none;stroke:#1f77b4;stroke-linecap:square;stroke-width:1.5;"/>
   </g>
   <g id="patch_3">
    <path d="M 40.603125 522.837656 
L 40.603125 33.597656 
" style="fill:none;stroke:#000000;stroke-linecap:square;stroke-linejoin:miter;stroke-width:0.8;"/>
   </g>
   <g id="patch_4">
    <path d="M 766.003125 522.837656 
L 766.003125 33.597656 
" style="fill:none;stroke:#000000;stroke-linecap:square;stroke-linejoin:miter;stroke-width:0.8;"/>
   </g>
   <g id="patch_5">
    <path d="M 40.603125 522.837656 
L 766.003125 522.837656 
" style="fill:none;stroke:#000000;stroke-linecap:square;stroke-linejoin:miter;stroke-width:0.8;"/>
   </g>
   <g id="patch_6">
    <path d="M 40.603125 33.597656 
L 766.003125 33.597656 
" style="fill:none;stroke:#000000;stroke-linecap:square;stroke-linejoin:miter;stroke-width:0.8;"/>
   </g>
   <g id="text_17">
    <!-- Pirates of the Caribbean Wait Times: 1 Week in July 2016 -->
    <g transform="translate(189.791016 18.597656)scale(0.15 -0.15)">
     <defs>
      <path d="M 19.671875 64.796875 
L 19.671875 37.40625 
L 32.078125 37.40625 
Q 38.96875 37.40625 42.71875 40.96875 
Q 46.484375 44.53125 46.484375 51.125 
Q 46.484375 57.671875 42.71875 61.234375 
Q 38.96875 64.796875 32.078125 64.796875 
z
M 9.8125 72.90625 
L 32.078125 72.90625 
Q 44.34375 72.90625 50.609375 67.359375 
Q 56.890625 61.8125 56.890625 51.125 
Q 56.890625 40.328125 50.609375 34.8125 
Q 44.34375 29.296875 32.078125 29.296875 
L 19.671875 29.296875 
L 19.671875 0 
L 9.8125 0 
z
" id="DejaVuSans-80"/>
      <path d="M 37.109375 75.984375 
L 37.109375 68.5 
L 28.515625 68.5 
Q 23.6875 68.5 21.796875 66.546875 
Q 19.921875 64.59375 19.921875 59.515625 
L 19.921875 54.6875 
L 34.71875 54.6875 
L 34.71875 47.703125 
L 19.921875 47.703125 
L 19.921875 0 
L 10.890625 0 
L 10.890625 47.703125 
L 2.296875 47.703125 
L 2.296875 54.6875 
L 10.890625 54.6875 
L 10.890625 58.5 
Q 10.890625 67.625 15.140625 71.796875 
Q 19.390625 75.984375 28.609375 75.984375 
z
" id="DejaVuSans-102"/>
      <path d="M 64.40625 67.28125 
L 64.40625 56.890625 
Q 59.421875 61.53125 53.78125 63.8125 
Q 48.140625 66.109375 41.796875 66.109375 
Q 29.296875 66.109375 22.65625 58.46875 
Q 16.015625 50.828125 16.015625 36.375 
Q 16.015625 21.96875 22.65625 14.328125 
Q 29.296875 6.6875 41.796875 6.6875 
Q 48.140625 6.6875 53.78125 8.984375 
Q 59.421875 11.28125 64.40625 15.921875 
L 64.40625 5.609375 
Q 59.234375 2.09375 53.4375 0.328125 
Q 47.65625 -1.421875 41.21875 -1.421875 
Q 24.65625 -1.421875 15.125 8.703125 
Q 5.609375 18.84375 5.609375 36.375 
Q 5.609375 53.953125 15.125 64.078125 
Q 24.65625 74.21875 41.21875 74.21875 
Q 47.75 74.21875 53.53125 72.484375 
Q 59.328125 70.75 64.40625 67.28125 
z
" id="DejaVuSans-67"/>
      <path d="M 48.6875 27.296875 
Q 48.6875 37.203125 44.609375 42.84375 
Q 40.53125 48.484375 33.40625 48.484375 
Q 26.265625 48.484375 22.1875 42.84375 
Q 18.109375 37.203125 18.109375 27.296875 
Q 18.109375 17.390625 22.1875 11.75 
Q 26.265625 6.109375 33.40625 6.109375 
Q 40.53125 6.109375 44.609375 11.75 
Q 48.6875 17.390625 48.6875 27.296875 
z
M 18.109375 46.390625 
Q 20.953125 51.265625 25.265625 53.625 
Q 29.59375 56 35.59375 56 
Q 45.5625 56 51.78125 48.09375 
Q 58.015625 40.1875 58.015625 27.296875 
Q 58.015625 14.40625 51.78125 6.484375 
Q 45.5625 -1.421875 35.59375 -1.421875 
Q 29.59375 -1.421875 25.265625 0.953125 
Q 20.953125 3.328125 18.109375 8.203125 
L 18.109375 0 
L 9.078125 0 
L 9.078125 75.984375 
L 18.109375 75.984375 
z
" id="DejaVuSans-98"/>
      <path d="M 11.71875 12.40625 
L 22.015625 12.40625 
L 22.015625 0 
L 11.71875 0 
z
M 11.71875 51.703125 
L 22.015625 51.703125 
L 22.015625 39.3125 
L 11.71875 39.3125 
z
" id="DejaVuSans-58"/>
      <path d="M 9.078125 75.984375 
L 18.109375 75.984375 
L 18.109375 31.109375 
L 44.921875 54.6875 
L 56.390625 54.6875 
L 27.390625 29.109375 
L 57.625 0 
L 45.90625 0 
L 18.109375 26.703125 
L 18.109375 0 
L 9.078125 0 
z
" id="DejaVuSans-107"/>
      <path d="M 9.8125 72.90625 
L 19.671875 72.90625 
L 19.671875 5.078125 
Q 19.671875 -8.109375 14.671875 -14.0625 
Q 9.671875 -20.015625 -1.421875 -20.015625 
L -5.171875 -20.015625 
L -5.171875 -11.71875 
L -2.09375 -11.71875 
Q 4.4375 -11.71875 7.125 -8.046875 
Q 9.8125 -4.390625 9.8125 5.078125 
z
" id="DejaVuSans-74"/>
      <path d="M 9.421875 75.984375 
L 18.40625 75.984375 
L 18.40625 0 
L 9.421875 0 
z
" id="DejaVuSans-108"/>
     </defs>
     <use xlink:href="#DejaVuSans-80"/>
     <use x="58.052734" xlink:href="#DejaVuSans-105"/>
     <use x="85.835938" xlink:href="#DejaVuSans-114"/>
     <use x="126.949219" xlink:href="#DejaVuSans-97"/>
     <use x="188.228516" xlink:href="#DejaVuSans-116"/>
     <use x="227.4375" xlink:href="#DejaVuSans-101"/>
     <use x="288.960938" xlink:href="#DejaVuSans-115"/>
     <use x="341.060547" xlink:href="#DejaVuSans-32"/>
     <use x="372.847656" xlink:href="#DejaVuSans-111"/>
     <use x="434.029297" xlink:href="#DejaVuSans-102"/>
     <use x="469.234375" xlink:href="#DejaVuSans-32"/>
     <use x="501.021484" xlink:href="#DejaVuSans-116"/>
     <use x="540.230469" xlink:href="#DejaVuSans-104"/>
     <use x="603.609375" xlink:href="#DejaVuSans-101"/>
     <use x="665.132812" xlink:href="#DejaVuSans-32"/>
     <use x="696.919922" xlink:href="#DejaVuSans-67"/>
     <use x="766.744141" xlink:href="#DejaVuSans-97"/>
     <use x="828.023438" xlink:href="#DejaVuSans-114"/>
     <use x="869.136719" xlink:href="#DejaVuSans-105"/>
     <use x="896.919922" xlink:href="#DejaVuSans-98"/>
     <use x="960.396484" xlink:href="#DejaVuSans-98"/>
     <use x="1023.873047" xlink:href="#DejaVuSans-101"/>
     <use x="1085.396484" xlink:href="#DejaVuSans-97"/>
     <use x="1146.675781" xlink:href="#DejaVuSans-110"/>
     <use x="1210.054688" xlink:href="#DejaVuSans-32"/>
     <use x="1241.841797" xlink:href="#DejaVuSans-87"/>
     <use x="1334.34375" xlink:href="#DejaVuSans-97"/>
     <use x="1395.623047" xlink:href="#DejaVuSans-105"/>
     <use x="1423.40625" xlink:href="#DejaVuSans-116"/>
     <use x="1462.615234" xlink:href="#DejaVuSans-32"/>
     <use x="1494.402344" xlink:href="#DejaVuSans-84"/>
     <use x="1552.361328" xlink:href="#DejaVuSans-105"/>
     <use x="1580.144531" xlink:href="#DejaVuSans-109"/>
     <use x="1677.556641" xlink:href="#DejaVuSans-101"/>
     <use x="1739.080078" xlink:href="#DejaVuSans-115"/>
     <use x="1791.179688" xlink:href="#DejaVuSans-58"/>
     <use x="1824.871094" xlink:href="#DejaVuSans-32"/>
     <use x="1856.658203" xlink:href="#DejaVuSans-49"/>
     <use x="1920.28125" xlink:href="#DejaVuSans-32"/>
     <use x="1952.068359" xlink:href="#DejaVuSans-87"/>
     <use x="2045.070312" xlink:href="#DejaVuSans-101"/>
     <use x="2106.59375" xlink:href="#DejaVuSans-101"/>
     <use x="2168.117188" xlink:href="#DejaVuSans-107"/>
     <use x="2226.027344" xlink:href="#DejaVuSans-32"/>
     <use x="2257.814453" xlink:href="#DejaVuSans-105"/>
     <use x="2285.597656" xlink:href="#DejaVuSans-110"/>
     <use x="2348.976562" xlink:href="#DejaVuSans-32"/>
     <use x="2380.763672" xlink:href="#DejaVuSans-74"/>
     <use x="2410.255859" xlink:href="#DejaVuSans-117"/>
     <use x="2473.634766" xlink:href="#DejaVuSans-108"/>
     <use x="2501.417969" xlink:href="#DejaVuSans-121"/>
     <use x="2560.597656" xlink:href="#DejaVuSans-32"/>
     <use x="2592.384766" xlink:href="#DejaVuSans-50"/>
     <use x="2656.007812" xlink:href="#DejaVuSans-48"/>
     <use x="2719.630859" xlink:href="#DejaVuSans-49"/>
     <use x="2783.253906" xlink:href="#DejaVuSans-54"/>
    </g>
   </g>
  </g>
 </g>
 <defs>
  <clipPath id="p54b0a2942f">
   <rect height="489.24" width="725.4" x="40.603125" y="33.597656"/>
  </clipPath>
 </defs>
</svg>
