<?xml version="1.0" encoding="utf-8" standalone="no"?>
<!DOCTYPE svg PUBLIC "-//W3C//DTD SVG 1.1//EN"
  "http://www.w3.org/Graphics/SVG/1.1/DTD/svg11.dtd">
<!-- Created with matplotlib (https://matplotlib.org/) -->
<svg height="562.329531pt" version="1.1" viewBox="0 0 775.13875 562.329531" width="775.13875pt" xmlns="http://www.w3.org/2000/svg" xmlns:xlink="http://www.w3.org/1999/xlink">
 <metadata>
  <rdf:RDF xmlns:cc="http://creativecommons.org/ns#" xmlns:dc="http://purl.org/dc/elements/1.1/" xmlns:rdf="http://www.w3.org/1999/02/22-rdf-syntax-ns#">
   <cc:Work>
    <dc:type rdf:resource="http://purl.org/dc/dcmitype/StillImage"/>
    <dc:date>2021-04-04T08:22:19.723421</dc:date>
    <dc:format>image/svg+xml</dc:format>
    <dc:creator>
     <cc:Agent>
      <dc:title>Matplotlib v3.3.2, https://matplotlib.org/</dc:title>
     </cc:Agent>
    </dc:creator>
   </cc:Work>
  </rdf:RDF>
 </metadata>
 <defs>
  <style type="text/css">*{stroke-linecap:butt;stroke-linejoin:round;}</style>
 </defs>
 <g id="figure_1">
  <g id="patch_1">
   <path d="M 0 562.329531 
L 775.13875 562.329531 
L 775.13875 0 
L 0 0 
z
" style="fill:none;"/>
  </g>
  <g id="axes_1">
   <g id="patch_2">
    <path d="M 42.53875 522.837656 
L 767.93875 522.837656 
L 767.93875 33.597656 
L 42.53875 33.597656 
z
" style="fill:#ffffff;"/>
   </g>
   <g id="matplotlib.axis_1">
    <g id="xtick_1">
     <g id="line2d_1">
      <defs>
       <path d="M 0 0 
L 0 3.5 
" id="me4d61b0f29" style="stroke:#000000;stroke-width:0.8;"/>
      </defs>
      <g>
       <use style="stroke:#000000;stroke-width:0.8;" x="75.511477" xlink:href="#me4d61b0f29" y="522.837656"/>
      </g>
     </g>
     <g id="text_1">
      <!-- 2016-01 -->
      <g transform="translate(54.620071 537.436094)scale(0.1 -0.1)">
       <defs>
        <path d="M 19.1875 8.296875 
L 53.609375 8.296875 
L 53.609375 0 
L 7.328125 0 
L 7.328125 8.296875 
Q 12.9375 14.109375 22.625 23.890625 
Q 32.328125 33.6875 34.8125 36.53125 
Q 39.546875 41.84375 41.421875 45.53125 
Q 43.3125 49.21875 43.3125 52.78125 
Q 43.3125 58.59375 39.234375 62.25 
Q 35.15625 65.921875 28.609375 65.921875 
Q 23.96875 65.921875 18.8125 64.3125 
Q 13.671875 62.703125 7.8125 59.421875 
L 7.8125 69.390625 
Q 13.765625 71.78125 18.9375 73 
Q 24.125 74.21875 28.421875 74.21875 
Q 39.75 74.21875 46.484375 68.546875 
Q 53.21875 62.890625 53.21875 53.421875 
Q 53.21875 48.921875 51.53125 44.890625 
Q 49.859375 40.875 45.40625 35.40625 
Q 44.1875 33.984375 37.640625 27.21875 
Q 31.109375 20.453125 19.1875 8.296875 
z
" id="DejaVuSans-50"/>
        <path d="M 31.78125 66.40625 
Q 24.171875 66.40625 20.328125 58.90625 
Q 16.5 51.421875 16.5 36.375 
Q 16.5 21.390625 20.328125 13.890625 
Q 24.171875 6.390625 31.78125 6.390625 
Q 39.453125 6.390625 43.28125 13.890625 
Q 47.125 21.390625 47.125 36.375 
Q 47.125 51.421875 43.28125 58.90625 
Q 39.453125 66.40625 31.78125 66.40625 
z
M 31.78125 74.21875 
Q 44.046875 74.21875 50.515625 64.515625 
Q 56.984375 54.828125 56.984375 36.375 
Q 56.984375 17.96875 50.515625 8.265625 
Q 44.046875 -1.421875 31.78125 -1.421875 
Q 19.53125 -1.421875 13.0625 8.265625 
Q 6.59375 17.96875 6.59375 36.375 
Q 6.59375 54.828125 13.0625 64.515625 
Q 19.53125 74.21875 31.78125 74.21875 
z
" id="DejaVuSans-48"/>
        <path d="M 12.40625 8.296875 
L 28.515625 8.296875 
L 28.515625 63.921875 
L 10.984375 60.40625 
L 10.984375 69.390625 
L 28.421875 72.90625 
L 38.28125 72.90625 
L 38.28125 8.296875 
L 54.390625 8.296875 
L 54.390625 0 
L 12.40625 0 
z
" id="DejaVuSans-49"/>
        <path d="M 33.015625 40.375 
Q 26.375 40.375 22.484375 35.828125 
Q 18.609375 31.296875 18.609375 23.390625 
Q 18.609375 15.53125 22.484375 10.953125 
Q 26.375 6.390625 33.015625 6.390625 
Q 39.65625 6.390625 43.53125 10.953125 
Q 47.40625 15.53125 47.40625 23.390625 
Q 47.40625 31.296875 43.53125 35.828125 
Q 39.65625 40.375 33.015625 40.375 
z
M 52.59375 71.296875 
L 52.59375 62.3125 
Q 48.875 64.0625 45.09375 64.984375 
Q 41.3125 65.921875 37.59375 65.921875 
Q 27.828125 65.921875 22.671875 59.328125 
Q 17.53125 52.734375 16.796875 39.40625 
Q 19.671875 43.65625 24.015625 45.921875 
Q 28.375 48.1875 33.59375 48.1875 
Q 44.578125 48.1875 50.953125 41.515625 
Q 57.328125 34.859375 57.328125 23.390625 
Q 57.328125 12.15625 50.6875 5.359375 
Q 44.046875 -1.421875 33.015625 -1.421875 
Q 20.359375 -1.421875 13.671875 8.265625 
Q 6.984375 17.96875 6.984375 36.375 
Q 6.984375 53.65625 15.1875 63.9375 
Q 23.390625 74.21875 37.203125 74.21875 
Q 40.921875 74.21875 44.703125 73.484375 
Q 48.484375 72.75 52.59375 71.296875 
z
" id="DejaVuSans-54"/>
        <path d="M 4.890625 31.390625 
L 31.203125 31.390625 
L 31.203125 23.390625 
L 4.890625 23.390625 
z
" id="DejaVuSans-45"/>
       </defs>
       <use xlink:href="#DejaVuSans-50"/>
       <use x="63.623047" xlink:href="#DejaVuSans-48"/>
       <use x="127.246094" xlink:href="#DejaVuSans-49"/>
       <use x="190.869141" xlink:href="#DejaVuSans-54"/>
       <use x="254.492188" xlink:href="#DejaVuSans-45"/>
       <use x="290.576172" xlink:href="#DejaVuSans-48"/>
       <use x="354.199219" xlink:href="#DejaVuSans-49"/>
      </g>
     </g>
    </g>
    <g id="xtick_2">
     <g id="line2d_2">
      <g>
       <use style="stroke:#000000;stroke-width:0.8;" x="183.914964" xlink:href="#me4d61b0f29" y="522.837656"/>
      </g>
     </g>
     <g id="text_2">
      <!-- 2016-03 -->
      <g transform="translate(163.023558 537.436094)scale(0.1 -0.1)">
       <defs>
        <path d="M 40.578125 39.3125 
Q 47.65625 37.796875 51.625 33 
Q 55.609375 28.21875 55.609375 21.1875 
Q 55.609375 10.40625 48.1875 4.484375 
Q 40.765625 -1.421875 27.09375 -1.421875 
Q 22.515625 -1.421875 17.65625 -0.515625 
Q 12.796875 0.390625 7.625 2.203125 
L 7.625 11.71875 
Q 11.71875 9.328125 16.59375 8.109375 
Q 21.484375 6.890625 26.8125 6.890625 
Q 36.078125 6.890625 40.9375 10.546875 
Q 45.796875 14.203125 45.796875 21.1875 
Q 45.796875 27.640625 41.28125 31.265625 
Q 36.765625 34.90625 28.71875 34.90625 
L 20.21875 34.90625 
L 20.21875 43.015625 
L 29.109375 43.015625 
Q 36.375 43.015625 40.234375 45.921875 
Q 44.09375 48.828125 44.09375 54.296875 
Q 44.09375 59.90625 40.109375 62.90625 
Q 36.140625 65.921875 28.71875 65.921875 
Q 24.65625 65.921875 20.015625 65.03125 
Q 15.375 64.15625 9.8125 62.3125 
L 9.8125 71.09375 
Q 15.4375 72.65625 20.34375 73.4375 
Q 25.25 74.21875 29.59375 74.21875 
Q 40.828125 74.21875 47.359375 69.109375 
Q 53.90625 64.015625 53.90625 55.328125 
Q 53.90625 49.265625 50.4375 45.09375 
Q 46.96875 40.921875 40.578125 39.3125 
z
" id="DejaVuSans-51"/>
       </defs>
       <use xlink:href="#DejaVuSans-50"/>
       <use x="63.623047" xlink:href="#DejaVuSans-48"/>
       <use x="127.246094" xlink:href="#DejaVuSans-49"/>
       <use x="190.869141" xlink:href="#DejaVuSans-54"/>
       <use x="254.492188" xlink:href="#DejaVuSans-45"/>
       <use x="290.576172" xlink:href="#DejaVuSans-48"/>
       <use x="354.199219" xlink:href="#DejaVuSans-51"/>
      </g>
     </g>
    </g>
    <g id="xtick_3">
     <g id="line2d_3">
      <g>
       <use style="stroke:#000000;stroke-width:0.8;" x="294.125176" xlink:href="#me4d61b0f29" y="522.837656"/>
      </g>
     </g>
     <g id="text_3">
      <!-- 2016-05 -->
      <g transform="translate(273.23377 537.436094)scale(0.1 -0.1)">
       <defs>
        <path d="M 10.796875 72.90625 
L 49.515625 72.90625 
L 49.515625 64.59375 
L 19.828125 64.59375 
L 19.828125 46.734375 
Q 21.96875 47.46875 24.109375 47.828125 
Q 26.265625 48.1875 28.421875 48.1875 
Q 40.625 48.1875 47.75 41.5 
Q 54.890625 34.8125 54.890625 23.390625 
Q 54.890625 11.625 47.5625 5.09375 
Q 40.234375 -1.421875 26.90625 -1.421875 
Q 22.3125 -1.421875 17.546875 -0.640625 
Q 12.796875 0.140625 7.71875 1.703125 
L 7.71875 11.625 
Q 12.109375 9.234375 16.796875 8.0625 
Q 21.484375 6.890625 26.703125 6.890625 
Q 35.15625 6.890625 40.078125 11.328125 
Q 45.015625 15.765625 45.015625 23.390625 
Q 45.015625 31 40.078125 35.4375 
Q 35.15625 39.890625 26.703125 39.890625 
Q 22.75 39.890625 18.8125 39.015625 
Q 14.890625 38.140625 10.796875 36.28125 
z
" id="DejaVuSans-53"/>
       </defs>
       <use xlink:href="#DejaVuSans-50"/>
       <use x="63.623047" xlink:href="#DejaVuSans-48"/>
       <use x="127.246094" xlink:href="#DejaVuSans-49"/>
       <use x="190.869141" xlink:href="#DejaVuSans-54"/>
       <use x="254.492188" xlink:href="#DejaVuSans-45"/>
       <use x="290.576172" xlink:href="#DejaVuSans-48"/>
       <use x="354.199219" xlink:href="#DejaVuSans-53"/>
      </g>
     </g>
    </g>
    <g id="xtick_4">
     <g id="line2d_4">
      <g>
       <use style="stroke:#000000;stroke-width:0.8;" x="404.335388" xlink:href="#me4d61b0f29" y="522.837656"/>
      </g>
     </g>
     <g id="text_4">
      <!-- 2016-07 -->
      <g transform="translate(383.443981 537.436094)scale(0.1 -0.1)">
       <defs>
        <path d="M 8.203125 72.90625 
L 55.078125 72.90625 
L 55.078125 68.703125 
L 28.609375 0 
L 18.3125 0 
L 43.21875 64.59375 
L 8.203125 64.59375 
z
" id="DejaVuSans-55"/>
       </defs>
       <use xlink:href="#DejaVuSans-50"/>
       <use x="63.623047" xlink:href="#DejaVuSans-48"/>
       <use x="127.246094" xlink:href="#DejaVuSans-49"/>
       <use x="190.869141" xlink:href="#DejaVuSans-54"/>
       <use x="254.492188" xlink:href="#DejaVuSans-45"/>
       <use x="290.576172" xlink:href="#DejaVuSans-48"/>
       <use x="354.199219" xlink:href="#DejaVuSans-55"/>
      </g>
     </g>
    </g>
    <g id="xtick_5">
     <g id="line2d_5">
      <g>
       <use style="stroke:#000000;stroke-width:0.8;" x="516.352324" xlink:href="#me4d61b0f29" y="522.837656"/>
      </g>
     </g>
     <g id="text_5">
      <!-- 2016-09 -->
      <g transform="translate(495.460918 537.436094)scale(0.1 -0.1)">
       <defs>
        <path d="M 10.984375 1.515625 
L 10.984375 10.5 
Q 14.703125 8.734375 18.5 7.8125 
Q 22.3125 6.890625 25.984375 6.890625 
Q 35.75 6.890625 40.890625 13.453125 
Q 46.046875 20.015625 46.78125 33.40625 
Q 43.953125 29.203125 39.59375 26.953125 
Q 35.25 24.703125 29.984375 24.703125 
Q 19.046875 24.703125 12.671875 31.3125 
Q 6.296875 37.9375 6.296875 49.421875 
Q 6.296875 60.640625 12.9375 67.421875 
Q 19.578125 74.21875 30.609375 74.21875 
Q 43.265625 74.21875 49.921875 64.515625 
Q 56.59375 54.828125 56.59375 36.375 
Q 56.59375 19.140625 48.40625 8.859375 
Q 40.234375 -1.421875 26.421875 -1.421875 
Q 22.703125 -1.421875 18.890625 -0.6875 
Q 15.09375 0.046875 10.984375 1.515625 
z
M 30.609375 32.421875 
Q 37.25 32.421875 41.125 36.953125 
Q 45.015625 41.5 45.015625 49.421875 
Q 45.015625 57.28125 41.125 61.84375 
Q 37.25 66.40625 30.609375 66.40625 
Q 23.96875 66.40625 20.09375 61.84375 
Q 16.21875 57.28125 16.21875 49.421875 
Q 16.21875 41.5 20.09375 36.953125 
Q 23.96875 32.421875 30.609375 32.421875 
z
" id="DejaVuSans-57"/>
       </defs>
       <use xlink:href="#DejaVuSans-50"/>
       <use x="63.623047" xlink:href="#DejaVuSans-48"/>
       <use x="127.246094" xlink:href="#DejaVuSans-49"/>
       <use x="190.869141" xlink:href="#DejaVuSans-54"/>
       <use x="254.492188" xlink:href="#DejaVuSans-45"/>
       <use x="290.576172" xlink:href="#DejaVuSans-48"/>
       <use x="354.199219" xlink:href="#DejaVuSans-57"/>
      </g>
     </g>
    </g>
    <g id="xtick_6">
     <g id="line2d_6">
      <g>
       <use style="stroke:#000000;stroke-width:0.8;" x="626.562536" xlink:href="#me4d61b0f29" y="522.837656"/>
      </g>
     </g>
     <g id="text_6">
      <!-- 2016-11 -->
      <g transform="translate(605.67113 537.436094)scale(0.1 -0.1)">
       <use xlink:href="#DejaVuSans-50"/>
       <use x="63.623047" xlink:href="#DejaVuSans-48"/>
       <use x="127.246094" xlink:href="#DejaVuSans-49"/>
       <use x="190.869141" xlink:href="#DejaVuSans-54"/>
       <use x="254.492188" xlink:href="#DejaVuSans-45"/>
       <use x="290.576172" xlink:href="#DejaVuSans-49"/>
       <use x="354.199219" xlink:href="#DejaVuSans-49"/>
      </g>
     </g>
    </g>
    <g id="xtick_7">
     <g id="line2d_7">
      <g>
       <use style="stroke:#000000;stroke-width:0.8;" x="736.772748" xlink:href="#me4d61b0f29" y="522.837656"/>
      </g>
     </g>
     <g id="text_7">
      <!-- 2017-01 -->
      <g transform="translate(715.881341 537.436094)scale(0.1 -0.1)">
       <use xlink:href="#DejaVuSans-50"/>
       <use x="63.623047" xlink:href="#DejaVuSans-48"/>
       <use x="127.246094" xlink:href="#DejaVuSans-49"/>
       <use x="190.869141" xlink:href="#DejaVuSans-55"/>
       <use x="254.492188" xlink:href="#DejaVuSans-45"/>
       <use x="290.576172" xlink:href="#DejaVuSans-48"/>
       <use x="354.199219" xlink:href="#DejaVuSans-49"/>
      </g>
     </g>
    </g>
    <g id="text_8">
     <!-- Date -->
     <g transform="translate(390.897812 552.633906)scale(0.12 -0.12)">
      <defs>
       <path d="M 19.671875 64.796875 
L 19.671875 8.109375 
L 31.59375 8.109375 
Q 46.6875 8.109375 53.6875 14.9375 
Q 60.6875 21.78125 60.6875 36.53125 
Q 60.6875 51.171875 53.6875 57.984375 
Q 46.6875 64.796875 31.59375 64.796875 
z
M 9.8125 72.90625 
L 30.078125 72.90625 
Q 51.265625 72.90625 61.171875 64.09375 
Q 71.09375 55.28125 71.09375 36.53125 
Q 71.09375 17.671875 61.125 8.828125 
Q 51.171875 0 30.078125 0 
L 9.8125 0 
z
" id="DejaVuSans-68"/>
       <path d="M 34.28125 27.484375 
Q 23.390625 27.484375 19.1875 25 
Q 14.984375 22.515625 14.984375 16.5 
Q 14.984375 11.71875 18.140625 8.90625 
Q 21.296875 6.109375 26.703125 6.109375 
Q 34.1875 6.109375 38.703125 11.40625 
Q 43.21875 16.703125 43.21875 25.484375 
L 43.21875 27.484375 
z
M 52.203125 31.203125 
L 52.203125 0 
L 43.21875 0 
L 43.21875 8.296875 
Q 40.140625 3.328125 35.546875 0.953125 
Q 30.953125 -1.421875 24.3125 -1.421875 
Q 15.921875 -1.421875 10.953125 3.296875 
Q 6 8.015625 6 15.921875 
Q 6 25.140625 12.171875 29.828125 
Q 18.359375 34.515625 30.609375 34.515625 
L 43.21875 34.515625 
L 43.21875 35.40625 
Q 43.21875 41.609375 39.140625 45 
Q 35.0625 48.390625 27.6875 48.390625 
Q 23 48.390625 18.546875 47.265625 
Q 14.109375 46.140625 10.015625 43.890625 
L 10.015625 52.203125 
Q 14.9375 54.109375 19.578125 55.046875 
Q 24.21875 56 28.609375 56 
Q 40.484375 56 46.34375 49.84375 
Q 52.203125 43.703125 52.203125 31.203125 
z
" id="DejaVuSans-97"/>
       <path d="M 18.3125 70.21875 
L 18.3125 54.6875 
L 36.8125 54.6875 
L 36.8125 47.703125 
L 18.3125 47.703125 
L 18.3125 18.015625 
Q 18.3125 11.328125 20.140625 9.421875 
Q 21.96875 7.515625 27.59375 7.515625 
L 36.8125 7.515625 
L 36.8125 0 
L 27.59375 0 
Q 17.1875 0 13.234375 3.875 
Q 9.28125 7.765625 9.28125 18.015625 
L 9.28125 47.703125 
L 2.6875 47.703125 
L 2.6875 54.6875 
L 9.28125 54.6875 
L 9.28125 70.21875 
z
" id="DejaVuSans-116"/>
       <path d="M 56.203125 29.59375 
L 56.203125 25.203125 
L 14.890625 25.203125 
Q 15.484375 15.921875 20.484375 11.0625 
Q 25.484375 6.203125 34.421875 6.203125 
Q 39.59375 6.203125 44.453125 7.46875 
Q 49.3125 8.734375 54.109375 11.28125 
L 54.109375 2.78125 
Q 49.265625 0.734375 44.1875 -0.34375 
Q 39.109375 -1.421875 33.890625 -1.421875 
Q 20.796875 -1.421875 13.15625 6.1875 
Q 5.515625 13.8125 5.515625 26.8125 
Q 5.515625 40.234375 12.765625 48.109375 
Q 20.015625 56 32.328125 56 
Q 43.359375 56 49.78125 48.890625 
Q 56.203125 41.796875 56.203125 29.59375 
z
M 47.21875 32.234375 
Q 47.125 39.59375 43.09375 43.984375 
Q 39.0625 48.390625 32.421875 48.390625 
Q 24.90625 48.390625 20.390625 44.140625 
Q 15.875 39.890625 15.1875 32.171875 
z
" id="DejaVuSans-101"/>
      </defs>
      <use xlink:href="#DejaVuSans-68"/>
      <use x="77.001953" xlink:href="#DejaVuSans-97"/>
      <use x="138.28125" xlink:href="#DejaVuSans-116"/>
      <use x="177.490234" xlink:href="#DejaVuSans-101"/>
     </g>
    </g>
   </g>
   <g id="matplotlib.axis_2">
    <g id="ytick_1">
     <g id="line2d_8">
      <defs>
       <path d="M 0 0 
L -3.5 0 
" id="me23d15d31b" style="stroke:#000000;stroke-width:0.8;"/>
      </defs>
      <g>
       <use style="stroke:#000000;stroke-width:0.8;" x="42.53875" xlink:href="#me23d15d31b" y="459.010627"/>
      </g>
     </g>
     <g id="text_9">
      <!-- 40 -->
      <g transform="translate(22.81375 462.809845)scale(0.1 -0.1)">
       <defs>
        <path d="M 37.796875 64.3125 
L 12.890625 25.390625 
L 37.796875 25.390625 
z
M 35.203125 72.90625 
L 47.609375 72.90625 
L 47.609375 25.390625 
L 58.015625 25.390625 
L 58.015625 17.1875 
L 47.609375 17.1875 
L 47.609375 0 
L 37.796875 0 
L 37.796875 17.1875 
L 4.890625 17.1875 
L 4.890625 26.703125 
z
" id="DejaVuSans-52"/>
       </defs>
       <use xlink:href="#DejaVuSans-52"/>
       <use x="63.623047" xlink:href="#DejaVuSans-48"/>
      </g>
     </g>
    </g>
    <g id="ytick_2">
     <g id="line2d_9">
      <g>
       <use style="stroke:#000000;stroke-width:0.8;" x="42.53875" xlink:href="#me23d15d31b" y="387.181874"/>
      </g>
     </g>
     <g id="text_10">
      <!-- 50 -->
      <g transform="translate(22.81375 390.981093)scale(0.1 -0.1)">
       <use xlink:href="#DejaVuSans-53"/>
       <use x="63.623047" xlink:href="#DejaVuSans-48"/>
      </g>
     </g>
    </g>
    <g id="ytick_3">
     <g id="line2d_10">
      <g>
       <use style="stroke:#000000;stroke-width:0.8;" x="42.53875" xlink:href="#me23d15d31b" y="315.353121"/>
      </g>
     </g>
     <g id="text_11">
      <!-- 60 -->
      <g transform="translate(22.81375 319.15234)scale(0.1 -0.1)">
       <use xlink:href="#DejaVuSans-54"/>
       <use x="63.623047" xlink:href="#DejaVuSans-48"/>
      </g>
     </g>
    </g>
    <g id="ytick_4">
     <g id="line2d_11">
      <g>
       <use style="stroke:#000000;stroke-width:0.8;" x="42.53875" xlink:href="#me23d15d31b" y="243.524369"/>
      </g>
     </g>
     <g id="text_12">
      <!-- 70 -->
      <g transform="translate(22.81375 247.323587)scale(0.1 -0.1)">
       <use xlink:href="#DejaVuSans-55"/>
       <use x="63.623047" xlink:href="#DejaVuSans-48"/>
      </g>
     </g>
    </g>
    <g id="ytick_5">
     <g id="line2d_12">
      <g>
       <use style="stroke:#000000;stroke-width:0.8;" x="42.53875" xlink:href="#me23d15d31b" y="171.695616"/>
      </g>
     </g>
     <g id="text_13">
      <!-- 80 -->
      <g transform="translate(22.81375 175.494835)scale(0.1 -0.1)">
       <defs>
        <path d="M 31.78125 34.625 
Q 24.75 34.625 20.71875 30.859375 
Q 16.703125 27.09375 16.703125 20.515625 
Q 16.703125 13.921875 20.71875 10.15625 
Q 24.75 6.390625 31.78125 6.390625 
Q 38.8125 6.390625 42.859375 10.171875 
Q 46.921875 13.96875 46.921875 20.515625 
Q 46.921875 27.09375 42.890625 30.859375 
Q 38.875 34.625 31.78125 34.625 
z
M 21.921875 38.8125 
Q 15.578125 40.375 12.03125 44.71875 
Q 8.5 49.078125 8.5 55.328125 
Q 8.5 64.0625 14.71875 69.140625 
Q 20.953125 74.21875 31.78125 74.21875 
Q 42.671875 74.21875 48.875 69.140625 
Q 55.078125 64.0625 55.078125 55.328125 
Q 55.078125 49.078125 51.53125 44.71875 
Q 48 40.375 41.703125 38.8125 
Q 48.828125 37.15625 52.796875 32.3125 
Q 56.78125 27.484375 56.78125 20.515625 
Q 56.78125 9.90625 50.3125 4.234375 
Q 43.84375 -1.421875 31.78125 -1.421875 
Q 19.734375 -1.421875 13.25 4.234375 
Q 6.78125 9.90625 6.78125 20.515625 
Q 6.78125 27.484375 10.78125 32.3125 
Q 14.796875 37.15625 21.921875 38.8125 
z
M 18.3125 54.390625 
Q 18.3125 48.734375 21.84375 45.5625 
Q 25.390625 42.390625 31.78125 42.390625 
Q 38.140625 42.390625 41.71875 45.5625 
Q 45.3125 48.734375 45.3125 54.390625 
Q 45.3125 60.0625 41.71875 63.234375 
Q 38.140625 66.40625 31.78125 66.40625 
Q 25.390625 66.40625 21.84375 63.234375 
Q 18.3125 60.0625 18.3125 54.390625 
z
" id="DejaVuSans-56"/>
       </defs>
       <use xlink:href="#DejaVuSans-56"/>
       <use x="63.623047" xlink:href="#DejaVuSans-48"/>
      </g>
     </g>
    </g>
    <g id="ytick_6">
     <g id="line2d_13">
      <g>
       <use style="stroke:#000000;stroke-width:0.8;" x="42.53875" xlink:href="#me23d15d31b" y="99.866863"/>
      </g>
     </g>
     <g id="text_14">
      <!-- 90 -->
      <g transform="translate(22.81375 103.666082)scale(0.1 -0.1)">
       <use xlink:href="#DejaVuSans-57"/>
       <use x="63.623047" xlink:href="#DejaVuSans-48"/>
      </g>
     </g>
    </g>
    <g id="text_15">
     <!-- Temperature (degrees fahrenheit) -->
     <g transform="translate(16.318125 379.798594)rotate(-90)scale(0.12 -0.12)">
      <defs>
       <path d="M -0.296875 72.90625 
L 61.375 72.90625 
L 61.375 64.59375 
L 35.5 64.59375 
L 35.5 0 
L 25.59375 0 
L 25.59375 64.59375 
L -0.296875 64.59375 
z
" id="DejaVuSans-84"/>
       <path d="M 52 44.1875 
Q 55.375 50.25 60.0625 53.125 
Q 64.75 56 71.09375 56 
Q 79.640625 56 84.28125 50.015625 
Q 88.921875 44.046875 88.921875 33.015625 
L 88.921875 0 
L 79.890625 0 
L 79.890625 32.71875 
Q 79.890625 40.578125 77.09375 44.375 
Q 74.3125 48.1875 68.609375 48.1875 
Q 61.625 48.1875 57.5625 43.546875 
Q 53.515625 38.921875 53.515625 30.90625 
L 53.515625 0 
L 44.484375 0 
L 44.484375 32.71875 
Q 44.484375 40.625 41.703125 44.40625 
Q 38.921875 48.1875 33.109375 48.1875 
Q 26.21875 48.1875 22.15625 43.53125 
Q 18.109375 38.875 18.109375 30.90625 
L 18.109375 0 
L 9.078125 0 
L 9.078125 54.6875 
L 18.109375 54.6875 
L 18.109375 46.1875 
Q 21.1875 51.21875 25.484375 53.609375 
Q 29.78125 56 35.6875 56 
Q 41.65625 56 45.828125 52.96875 
Q 50 49.953125 52 44.1875 
z
" id="DejaVuSans-109"/>
       <path d="M 18.109375 8.203125 
L 18.109375 -20.796875 
L 9.078125 -20.796875 
L 9.078125 54.6875 
L 18.109375 54.6875 
L 18.109375 46.390625 
Q 20.953125 51.265625 25.265625 53.625 
Q 29.59375 56 35.59375 56 
Q 45.5625 56 51.78125 48.09375 
Q 58.015625 40.1875 58.015625 27.296875 
Q 58.015625 14.40625 51.78125 6.484375 
Q 45.5625 -1.421875 35.59375 -1.421875 
Q 29.59375 -1.421875 25.265625 0.953125 
Q 20.953125 3.328125 18.109375 8.203125 
z
M 48.6875 27.296875 
Q 48.6875 37.203125 44.609375 42.84375 
Q 40.53125 48.484375 33.40625 48.484375 
Q 26.265625 48.484375 22.1875 42.84375 
Q 18.109375 37.203125 18.109375 27.296875 
Q 18.109375 17.390625 22.1875 11.75 
Q 26.265625 6.109375 33.40625 6.109375 
Q 40.53125 6.109375 44.609375 11.75 
Q 48.6875 17.390625 48.6875 27.296875 
z
" id="DejaVuSans-112"/>
       <path d="M 41.109375 46.296875 
Q 39.59375 47.171875 37.8125 47.578125 
Q 36.03125 48 33.890625 48 
Q 26.265625 48 22.1875 43.046875 
Q 18.109375 38.09375 18.109375 28.8125 
L 18.109375 0 
L 9.078125 0 
L 9.078125 54.6875 
L 18.109375 54.6875 
L 18.109375 46.1875 
Q 20.953125 51.171875 25.484375 53.578125 
Q 30.03125 56 36.53125 56 
Q 37.453125 56 38.578125 55.875 
Q 39.703125 55.765625 41.0625 55.515625 
z
" id="DejaVuSans-114"/>
       <path d="M 8.5 21.578125 
L 8.5 54.6875 
L 17.484375 54.6875 
L 17.484375 21.921875 
Q 17.484375 14.15625 20.5 10.265625 
Q 23.53125 6.390625 29.59375 6.390625 
Q 36.859375 6.390625 41.078125 11.03125 
Q 45.3125 15.671875 45.3125 23.6875 
L 45.3125 54.6875 
L 54.296875 54.6875 
L 54.296875 0 
L 45.3125 0 
L 45.3125 8.40625 
Q 42.046875 3.421875 37.71875 1 
Q 33.40625 -1.421875 27.6875 -1.421875 
Q 18.265625 -1.421875 13.375 4.4375 
Q 8.5 10.296875 8.5 21.578125 
z
M 31.109375 56 
z
" id="DejaVuSans-117"/>
       <path id="DejaVuSans-32"/>
       <path d="M 31 75.875 
Q 24.46875 64.65625 21.28125 53.65625 
Q 18.109375 42.671875 18.109375 31.390625 
Q 18.109375 20.125 21.3125 9.0625 
Q 24.515625 -2 31 -13.1875 
L 23.1875 -13.1875 
Q 15.875 -1.703125 12.234375 9.375 
Q 8.59375 20.453125 8.59375 31.390625 
Q 8.59375 42.28125 12.203125 53.3125 
Q 15.828125 64.359375 23.1875 75.875 
z
" id="DejaVuSans-40"/>
       <path d="M 45.40625 46.390625 
L 45.40625 75.984375 
L 54.390625 75.984375 
L 54.390625 0 
L 45.40625 0 
L 45.40625 8.203125 
Q 42.578125 3.328125 38.25 0.953125 
Q 33.9375 -1.421875 27.875 -1.421875 
Q 17.96875 -1.421875 11.734375 6.484375 
Q 5.515625 14.40625 5.515625 27.296875 
Q 5.515625 40.1875 11.734375 48.09375 
Q 17.96875 56 27.875 56 
Q 33.9375 56 38.25 53.625 
Q 42.578125 51.265625 45.40625 46.390625 
z
M 14.796875 27.296875 
Q 14.796875 17.390625 18.875 11.75 
Q 22.953125 6.109375 30.078125 6.109375 
Q 37.203125 6.109375 41.296875 11.75 
Q 45.40625 17.390625 45.40625 27.296875 
Q 45.40625 37.203125 41.296875 42.84375 
Q 37.203125 48.484375 30.078125 48.484375 
Q 22.953125 48.484375 18.875 42.84375 
Q 14.796875 37.203125 14.796875 27.296875 
z
" id="DejaVuSans-100"/>
       <path d="M 45.40625 27.984375 
Q 45.40625 37.75 41.375 43.109375 
Q 37.359375 48.484375 30.078125 48.484375 
Q 22.859375 48.484375 18.828125 43.109375 
Q 14.796875 37.75 14.796875 27.984375 
Q 14.796875 18.265625 18.828125 12.890625 
Q 22.859375 7.515625 30.078125 7.515625 
Q 37.359375 7.515625 41.375 12.890625 
Q 45.40625 18.265625 45.40625 27.984375 
z
M 54.390625 6.78125 
Q 54.390625 -7.171875 48.1875 -13.984375 
Q 42 -20.796875 29.203125 -20.796875 
Q 24.46875 -20.796875 20.265625 -20.09375 
Q 16.0625 -19.390625 12.109375 -17.921875 
L 12.109375 -9.1875 
Q 16.0625 -11.328125 19.921875 -12.34375 
Q 23.78125 -13.375 27.78125 -13.375 
Q 36.625 -13.375 41.015625 -8.765625 
Q 45.40625 -4.15625 45.40625 5.171875 
L 45.40625 9.625 
Q 42.625 4.78125 38.28125 2.390625 
Q 33.9375 0 27.875 0 
Q 17.828125 0 11.671875 7.65625 
Q 5.515625 15.328125 5.515625 27.984375 
Q 5.515625 40.671875 11.671875 48.328125 
Q 17.828125 56 27.875 56 
Q 33.9375 56 38.28125 53.609375 
Q 42.625 51.21875 45.40625 46.390625 
L 45.40625 54.6875 
L 54.390625 54.6875 
z
" id="DejaVuSans-103"/>
       <path d="M 44.28125 53.078125 
L 44.28125 44.578125 
Q 40.484375 46.53125 36.375 47.5 
Q 32.28125 48.484375 27.875 48.484375 
Q 21.1875 48.484375 17.84375 46.4375 
Q 14.5 44.390625 14.5 40.28125 
Q 14.5 37.15625 16.890625 35.375 
Q 19.28125 33.59375 26.515625 31.984375 
L 29.59375 31.296875 
Q 39.15625 29.25 43.1875 25.515625 
Q 47.21875 21.78125 47.21875 15.09375 
Q 47.21875 7.46875 41.1875 3.015625 
Q 35.15625 -1.421875 24.609375 -1.421875 
Q 20.21875 -1.421875 15.453125 -0.5625 
Q 10.6875 0.296875 5.421875 2 
L 5.421875 11.28125 
Q 10.40625 8.6875 15.234375 7.390625 
Q 20.0625 6.109375 24.8125 6.109375 
Q 31.15625 6.109375 34.5625 8.28125 
Q 37.984375 10.453125 37.984375 14.40625 
Q 37.984375 18.0625 35.515625 20.015625 
Q 33.0625 21.96875 24.703125 23.78125 
L 21.578125 24.515625 
Q 13.234375 26.265625 9.515625 29.90625 
Q 5.8125 33.546875 5.8125 39.890625 
Q 5.8125 47.609375 11.28125 51.796875 
Q 16.75 56 26.8125 56 
Q 31.78125 56 36.171875 55.265625 
Q 40.578125 54.546875 44.28125 53.078125 
z
" id="DejaVuSans-115"/>
       <path d="M 37.109375 75.984375 
L 37.109375 68.5 
L 28.515625 68.5 
Q 23.6875 68.5 21.796875 66.546875 
Q 19.921875 64.59375 19.921875 59.515625 
L 19.921875 54.6875 
L 34.71875 54.6875 
L 34.71875 47.703125 
L 19.921875 47.703125 
L 19.921875 0 
L 10.890625 0 
L 10.890625 47.703125 
L 2.296875 47.703125 
L 2.296875 54.6875 
L 10.890625 54.6875 
L 10.890625 58.5 
Q 10.890625 67.625 15.140625 71.796875 
Q 19.390625 75.984375 28.609375 75.984375 
z
" id="DejaVuSans-102"/>
       <path d="M 54.890625 33.015625 
L 54.890625 0 
L 45.90625 0 
L 45.90625 32.71875 
Q 45.90625 40.484375 42.875 44.328125 
Q 39.84375 48.1875 33.796875 48.1875 
Q 26.515625 48.1875 22.3125 43.546875 
Q 18.109375 38.921875 18.109375 30.90625 
L 18.109375 0 
L 9.078125 0 
L 9.078125 75.984375 
L 18.109375 75.984375 
L 18.109375 46.1875 
Q 21.34375 51.125 25.703125 53.5625 
Q 30.078125 56 35.796875 56 
Q 45.21875 56 50.046875 50.171875 
Q 54.890625 44.34375 54.890625 33.015625 
z
" id="DejaVuSans-104"/>
       <path d="M 54.890625 33.015625 
L 54.890625 0 
L 45.90625 0 
L 45.90625 32.71875 
Q 45.90625 40.484375 42.875 44.328125 
Q 39.84375 48.1875 33.796875 48.1875 
Q 26.515625 48.1875 22.3125 43.546875 
Q 18.109375 38.921875 18.109375 30.90625 
L 18.109375 0 
L 9.078125 0 
L 9.078125 54.6875 
L 18.109375 54.6875 
L 18.109375 46.1875 
Q 21.34375 51.125 25.703125 53.5625 
Q 30.078125 56 35.796875 56 
Q 45.21875 56 50.046875 50.171875 
Q 54.890625 44.34375 54.890625 33.015625 
z
" id="DejaVuSans-110"/>
       <path d="M 9.421875 54.6875 
L 18.40625 54.6875 
L 18.40625 0 
L 9.421875 0 
z
M 9.421875 75.984375 
L 18.40625 75.984375 
L 18.40625 64.59375 
L 9.421875 64.59375 
z
" id="DejaVuSans-105"/>
       <path d="M 8.015625 75.875 
L 15.828125 75.875 
Q 23.140625 64.359375 26.78125 53.3125 
Q 30.421875 42.28125 30.421875 31.390625 
Q 30.421875 20.453125 26.78125 9.375 
Q 23.140625 -1.703125 15.828125 -13.1875 
L 8.015625 -13.1875 
Q 14.5 -2 17.703125 9.0625 
Q 20.90625 20.125 20.90625 31.390625 
Q 20.90625 42.671875 17.703125 53.65625 
Q 14.5 64.65625 8.015625 75.875 
z
" id="DejaVuSans-41"/>
      </defs>
      <use xlink:href="#DejaVuSans-84"/>
      <use x="44.083984" xlink:href="#DejaVuSans-101"/>
      <use x="105.607422" xlink:href="#DejaVuSans-109"/>
      <use x="203.019531" xlink:href="#DejaVuSans-112"/>
      <use x="266.496094" xlink:href="#DejaVuSans-101"/>
      <use x="328.019531" xlink:href="#DejaVuSans-114"/>
      <use x="369.132812" xlink:href="#DejaVuSans-97"/>
      <use x="430.412109" xlink:href="#DejaVuSans-116"/>
      <use x="469.621094" xlink:href="#DejaVuSans-117"/>
      <use x="533" xlink:href="#DejaVuSans-114"/>
      <use x="571.863281" xlink:href="#DejaVuSans-101"/>
      <use x="633.386719" xlink:href="#DejaVuSans-32"/>
      <use x="665.173828" xlink:href="#DejaVuSans-40"/>
      <use x="704.1875" xlink:href="#DejaVuSans-100"/>
      <use x="767.664062" xlink:href="#DejaVuSans-101"/>
      <use x="829.1875" xlink:href="#DejaVuSans-103"/>
      <use x="892.664062" xlink:href="#DejaVuSans-114"/>
      <use x="931.527344" xlink:href="#DejaVuSans-101"/>
      <use x="993.050781" xlink:href="#DejaVuSans-101"/>
      <use x="1054.574219" xlink:href="#DejaVuSans-115"/>
      <use x="1106.673828" xlink:href="#DejaVuSans-32"/>
      <use x="1138.460938" xlink:href="#DejaVuSans-102"/>
      <use x="1173.666016" xlink:href="#DejaVuSans-97"/>
      <use x="1234.945312" xlink:href="#DejaVuSans-104"/>
      <use x="1298.324219" xlink:href="#DejaVuSans-114"/>
      <use x="1337.1875" xlink:href="#DejaVuSans-101"/>
      <use x="1398.710938" xlink:href="#DejaVuSans-110"/>
      <use x="1462.089844" xlink:href="#DejaVuSans-104"/>
      <use x="1525.46875" xlink:href="#DejaVuSans-101"/>
      <use x="1586.992188" xlink:href="#DejaVuSans-105"/>
      <use x="1614.775391" xlink:href="#DejaVuSans-116"/>
      <use x="1653.984375" xlink:href="#DejaVuSans-41"/>
     </g>
    </g>
   </g>
   <g id="line2d_14">
    <path clip-path="url(#p087e0c0bac)" d="M 75.511477 152.086367 
L 79.124927 312.120827 
L 80.931652 277.212054 
L 82.738376 262.487159 
L 84.545101 263.420933 
L 86.351826 225.351694 
L 88.158551 229.876906 
L 89.965276 230.882508 
L 91.772 241.441335 
L 93.578725 319.375532 
L 95.38545 271.393925 
L 97.192175 314.491176 
L 98.998899 252.07199 
L 100.805624 207.825479 
L 102.612349 184.337477 
L 104.419074 257.387318 
L 106.225799 318.729073 
L 108.032523 349.687265 
L 109.839248 282.742868 
L 111.645973 236.126007 
L 113.452698 245.894718 
L 115.259422 340.708671 
L 117.066147 353.781504 
L 118.872872 254.298682 
L 120.679597 210.195827 
L 122.486322 269.885521 
L 124.293046 272.327699 
L 126.099771 276.27828 
L 127.906496 239.717445 
L 129.713221 230.954337 
L 131.519946 165.302857 
L 133.32667 157.042551 
L 135.133395 154.1694 
L 136.94012 173.706821 
L 138.746845 313.844718 
L 140.553569 280.30069 
L 142.360294 324.188058 
L 144.167019 277.42754 
L 145.973744 326.055606 
L 147.780469 314.491176 
L 149.587193 276.781081 
L 151.393918 209.190225 
L 153.200643 248.767868 
L 155.007368 247.834094 
L 156.814092 215.726641 
L 158.620817 199.565172 
L 160.427542 210.914115 
L 162.234267 230.667022 
L 164.040992 228.296673 
L 167.654441 203.587582 
L 169.461166 174.065965 
L 171.267891 182.757244 
L 173.074616 169.971726 
L 174.88134 284.251271 
L 176.688065 288.130024 
L 178.49479 270.316493 
L 180.301515 225.998153 
L 182.108239 204.593185 
L 183.914964 174.784252 
L 185.721689 168.247836 
L 187.528414 170.259041 
L 189.335139 205.024157 
L 191.141863 219.605394 
L 192.948588 211.416916 
L 194.755313 193.244242 
L 196.562038 180.386895 
L 198.368762 165.877487 
L 200.175487 146.483724 
L 201.982212 153.091969 
L 203.788937 157.114379 
L 207.402386 127.449104 
L 209.209111 118.255024 
L 211.015836 124.719612 
L 212.822561 128.023734 
L 214.629285 140.737424 
L 216.43601 201.360891 
L 218.242735 164.58457 
L 220.04946 279.654231 
L 221.856185 215.080183 
L 223.662909 174.999739 
L 225.469634 154.959517 
L 227.276359 175.861684 
L 229.083084 130.250426 
L 230.889809 127.377276 
L 232.696533 168.391493 
L 234.503258 177.585574 
L 236.309983 164.728227 
L 238.116708 118.398682 
L 239.923432 103.889274 
L 241.730157 193.316071 
L 243.536882 206.819876 
L 245.343607 166.164802 
L 247.150332 143.466916 
L 248.957056 191.807667 
L 250.763781 160.274844 
L 252.570506 137.792445 
L 254.377231 201.43272 
L 256.183955 178.303861 
L 257.99068 175.287054 
L 259.797405 155.175003 
L 261.60413 155.246832 
L 263.410855 145.478121 
L 265.217579 177.22643 
L 267.024304 193.818872 
L 268.831029 185.343079 
L 270.637754 175.071567 
L 272.444479 170.833671 
L 274.251203 167.601377 
L 276.057928 149.500532 
L 277.864653 142.820458 
L 279.671378 147.920299 
L 281.478102 140.234622 
L 283.284827 156.036948 
L 285.091552 135.350267 
L 286.898277 134.416493 
L 288.705002 111.287635 
L 290.511726 100.297836 
L 292.318451 119.978914 
L 294.125176 114.519929 
L 295.931901 98.430288 
L 297.738625 111.503121 
L 299.54535 186.635997 
L 301.352075 164.943713 
L 303.1588 191.951324 
L 304.965525 167.888692 
L 306.772249 137.002329 
L 308.578974 134.703808 
L 310.385699 129.388481 
L 312.192424 122.923893 
L 313.999149 136.858671 
L 315.805873 101.087952 
L 317.612598 102.9555 
L 319.419323 112.436895 
L 321.226048 107.839855 
L 323.032772 126.084358 
L 324.839497 103.242815 
L 326.646222 130.681398 
L 328.452947 121.846462 
L 330.259672 105.325849 
L 332.066396 110.42569 
L 333.873121 127.018132 
L 335.679846 127.808248 
L 337.486571 120.481715 
L 339.293295 127.161789 
L 341.10002 129.101166 
L 342.906745 98.93309 
L 344.71347 97.568343 
L 346.520195 102.811842 
L 348.326919 95.557138 
L 350.133644 95.197995 
L 351.940369 92.827646 
L 355.553818 83.489908 
L 357.360543 87.871462 
L 359.167268 130.250426 
L 362.780718 112.72421 
L 364.587442 137.289644 
L 366.394167 111.646779 
L 368.200892 119.61977 
L 370.007617 103.027329 
L 371.814342 84.136367 
L 373.621066 74.583143 
L 375.427791 90.960098 
L 377.234516 92.755817 
L 379.041241 107.55254 
L 380.847965 87.081345 
L 382.65469 138.367075 
L 384.461415 134.344665 
L 386.26814 123.570352 
L 388.074865 89.595352 
L 389.881589 73.721197 
L 391.688314 68.9805 
L 393.495039 62.946885 
L 395.301764 102.093555 
L 397.108488 91.534728 
L 398.915213 82.268819 
L 400.721938 92.109358 
L 402.528663 96.63457 
L 404.335388 94.336049 
L 406.142112 98.502117 
L 407.948837 92.468502 
L 409.755562 78.390066 
L 411.562287 68.908671 
L 413.369012 69.267815 
L 415.175736 67.112952 
L 416.982461 55.835838 
L 418.789186 61.366652 
L 420.595911 79.32384 
L 422.402635 62.372255 
L 424.20936 64.886261 
L 426.016085 77.671779 
L 427.82281 80.544929 
L 429.629535 78.17458 
L 431.436259 79.754813 
L 433.242984 88.446092 
L 435.049709 107.55254 
L 436.856434 104.10476 
L 438.663158 86.434887 
L 440.469883 102.38087 
L 442.276608 87.727804 
L 444.083333 91.103756 
L 445.890058 82.915278 
L 447.696782 95.413481 
L 449.503507 72.715595 
L 451.310232 65.891863 
L 453.116957 67.112952 
L 454.923682 79.32384 
L 456.730406 82.125162 
L 458.537131 87.225003 
L 460.343856 70.417075 
L 462.150581 74.798629 
L 463.957305 110.497519 
L 465.76403 132.548946 
L 467.570755 86.291229 
L 469.37748 104.248417 
L 471.184205 125.150584 
L 472.990929 159.556557 
L 474.797654 115.166388 
L 476.604379 108.773629 
L 478.411104 93.186789 
L 480.217828 86.075743 
L 482.024553 78.461895 
L 483.831278 114.735415 
L 485.638003 105.613164 
L 487.444728 120.697202 
L 489.251452 94.838851 
L 491.058177 101.087952 
L 492.864902 79.108354 
L 494.671627 82.268819 
L 496.478351 66.897466 
L 498.285076 60.93568 
L 500.091801 69.55513 
L 501.898526 102.9555 
L 503.705251 88.661578 
L 505.511975 102.021726 
L 507.3187 96.63457 
L 509.125425 89.882667 
L 510.93215 129.675796 
L 512.738875 124.288639 
L 514.545599 142.604971 
L 516.352324 129.388481 
L 518.159049 137.002329 
L 519.965774 127.018132 
L 521.772498 93.617762 
L 523.579223 137.433301 
L 525.385948 111.646779 
L 528.999398 104.032931 
L 530.806122 97.065542 
L 532.612847 91.391071 
L 534.419572 97.999316 
L 536.226297 96.706398 
L 538.033021 140.521937 
L 539.839746 104.67939 
L 541.646471 92.899474 
L 543.453196 99.938692 
L 545.259921 91.678386 
L 547.066645 87.727804 
L 548.87337 96.706398 
L 550.680095 115.956504 
L 552.48682 97.352857 
L 554.293545 85.213798 
L 556.100269 91.103756 
L 557.906994 91.175584 
L 559.713719 90.744612 
L 561.520444 124.216811 
L 563.327168 107.408882 
L 565.133893 106.044136 
L 566.940618 126.730817 
L 568.747343 99.866863 
L 570.554068 103.027329 
L 572.360792 118.973312 
L 574.167517 126.587159 
L 575.974242 131.687001 
L 577.780967 101.949897 
L 581.394416 184.983935 
L 583.201141 113.227011 
L 585.007866 134.991123 
L 586.814591 171.049157 
L 588.621315 169.971726 
L 590.42804 156.827064 
L 592.234765 138.295246 
L 594.04149 147.992128 
L 595.848215 127.305447 
L 597.654939 145.047149 
L 601.268389 131.543343 
L 603.075114 141.671197 
L 604.881838 139.659992 
L 606.688563 134.560151 
L 608.495288 209.190225 
L 610.302013 189.796462 
L 612.108738 183.475532 
L 613.915462 164.943713 
L 615.722187 143.107773 
L 617.528912 154.887688 
L 619.335637 153.953914 
L 621.142361 149.213217 
L 622.949086 137.792445 
L 624.755811 143.754231 
L 626.562536 140.306451 
L 628.369261 144.472519 
L 630.175985 149.213217 
L 631.98271 144.544348 
L 633.789435 172.270246 
L 635.59616 181.895299 
L 637.402884 175.574369 
L 639.209609 170.9055 
L 641.016334 193.100584 
L 642.823059 178.519348 
L 644.629784 190.586578 
L 646.436508 185.917709 
L 648.243233 167.45772 
L 650.049958 246.253861 
L 651.856683 233.252857 
L 653.663408 200.28346 
L 655.470132 190.083777 
L 657.276857 189.724633 
L 659.083582 184.193819 
L 660.890307 264.713851 
L 662.697031 251.425532 
L 664.503756 205.239644 
L 666.310481 183.403703 
L 668.117206 167.314062 
M 671.730655 202.58198 
L 673.53738 196.404707 
L 675.344105 185.917709 
L 677.15083 148.782244 
L 678.957554 145.262635 
L 680.764279 136.427699 
L 682.571004 210.698629 
L 684.377729 194.034358 
L 686.184454 157.329866 
L 687.991178 130.896885 
L 689.797903 158.910098 
L 691.604628 194.034358 
L 693.411353 234.114802 
M 697.024802 233.396515 
L 698.831527 207.322677 
L 700.638252 157.976324 
L 702.444977 156.324263 
L 704.251701 151.87088 
L 706.058426 213.068978 
L 707.865151 187.282455 
L 709.671876 149.213217 
L 711.478601 123.283037 
L 713.285325 140.593766 
L 715.09205 240.148417 
L 716.898775 279.079601 
L 718.7055 190.083777 
L 720.512224 178.519348 
L 722.318949 163.363481 
L 724.125674 163.291652 
L 725.932399 170.690014 
L 727.739124 159.628386 
L 729.545848 156.898893 
L 731.352573 167.673206 
L 733.159298 291.936948 
L 734.966023 168.176007 
L 734.966023 168.176007 
" style="fill:none;stroke:#fc8d59;stroke-linecap:square;stroke-width:1.5;"/>
   </g>
   <g id="line2d_15">
    <path clip-path="url(#p087e0c0bac)" d="M 75.511477 259.470352 
L 77.318202 308.457561 
L 79.124927 383.805923 
L 80.931652 400.182878 
L 82.738376 374.683671 
L 84.545101 347.029601 
L 86.351826 337.117233 
L 88.158551 316.717868 
L 89.965276 322.751483 
L 91.772 350.261895 
L 93.578725 424.604654 
L 95.38545 436.097255 
L 97.192175 405.713692 
L 98.998899 396.232297 
L 100.805624 315.712265 
L 102.612349 368.937371 
L 104.419074 371.954178 
L 106.225799 423.527223 
L 108.032523 443.998417 
L 109.839248 457.286737 
L 111.645973 430.207297 
L 113.452698 343.07902 
L 115.259422 439.760521 
L 117.066147 500.599474 
L 118.872872 476.249527 
L 122.486322 290.141229 
L 124.293046 308.098417 
L 126.099771 387.97199 
L 127.906496 406.001007 
L 129.713221 361.610838 
L 131.519946 302.567603 
L 133.32667 295.097413 
L 135.133395 259.398523 
L 136.94012 332.376536 
L 138.746845 416.057033 
L 140.553569 394.795722 
L 142.360294 422.449792 
L 144.167019 458.651483 
L 145.973744 396.950584 
L 147.780469 450.463005 
L 149.587193 472.514432 
L 153.200643 382.80032 
L 155.007368 417.92458 
L 156.814092 363.191071 
L 158.620817 326.199263 
L 160.427542 391.850743 
L 162.234267 370.086631 
L 164.040992 362.472783 
L 165.847716 370.014802 
L 167.654441 359.384147 
L 169.461166 341.498787 
L 171.267891 297.826906 
L 173.074616 318.154443 
L 174.88134 373.175267 
L 176.688065 411.890965 
L 178.49479 425.035627 
L 180.301515 428.124263 
L 182.108239 356.798312 
L 183.914964 348.753491 
L 185.721689 314.27569 
L 187.528414 345.808512 
L 189.335139 342.073417 
L 191.141863 364.555817 
L 192.948588 361.539009 
L 194.755313 364.053016 
L 198.368762 301.777487 
L 200.175487 292.727064 
L 201.982212 300.915542 
L 203.788937 293.373523 
L 205.595662 271.034781 
L 207.402386 240.363904 
L 209.209111 246.110204 
L 211.015836 253.508565 
L 212.822561 259.542181 
L 214.629285 286.477963 
L 216.43601 262.128016 
L 218.242735 273.620616 
L 220.04946 383.015806 
L 221.856185 415.913375 
L 223.662909 369.0092 
L 225.469634 336.327117 
L 227.276359 297.324104 
L 229.083084 260.978756 
L 230.889809 229.517762 
L 232.696533 224.777064 
L 234.503258 270.316493 
L 236.309983 283.102011 
L 238.116708 260.835098 
L 241.730157 229.517762 
L 243.536882 315.42495 
L 245.343607 327.133037 
L 247.150332 322.823312 
L 248.957056 296.821303 
L 250.763781 296.821303 
L 252.570506 305.799897 
L 254.377231 317.077011 
L 256.183955 348.82532 
L 257.99068 315.712265 
L 259.797405 320.237477 
L 261.60413 279.007773 
L 263.410855 263.205447 
L 265.217579 254.873312 
L 267.024304 264.211049 
L 268.831029 296.605817 
L 270.637754 309.965965 
L 272.444479 315.137635 
L 274.251203 322.607825 
L 276.057928 292.152434 
L 277.864653 287.627223 
L 279.671378 252.933935 
L 281.478102 276.350109 
L 283.284827 269.239062 
L 285.091552 289.422942 
L 286.898277 277.355711 
L 290.511726 250.635415 
L 292.318451 242.30328 
L 294.125176 254.873312 
L 295.931901 241.082191 
L 297.738625 229.805077 
L 299.54535 261.625214 
L 301.352075 324.834517 
L 303.1588 339.200267 
L 304.965525 340.852329 
L 306.772249 325.265489 
L 308.578974 304.147836 
L 310.385699 265.432138 
L 312.192424 250.276271 
L 313.999149 242.87791 
L 315.805873 252.502963 
L 317.612598 238.568185 
L 319.419323 284.682244 
L 321.226048 248.696039 
L 323.032772 246.110204 
L 324.839497 245.17643 
L 326.646222 222.406715 
L 328.452947 233.1092 
L 330.259672 225.710838 
L 332.066396 231.457138 
L 333.873121 250.491758 
L 335.679846 246.253861 
L 337.486571 247.690436 
L 339.293295 267.802487 
L 341.10002 237.70624 
L 342.906745 237.849897 
L 344.71347 230.523364 
L 346.520195 232.53457 
L 348.326919 234.976747 
L 350.133644 227.219242 
L 351.940369 221.185627 
L 353.747094 208.759252 
L 355.553818 204.449527 
L 357.360543 208.687424 
L 359.167268 215.008354 
L 360.973993 193.459728 
L 362.780718 197.841282 
L 364.587442 212.207033 
L 366.394167 219.174422 
L 368.200892 209.980341 
L 370.007617 215.008354 
L 371.814342 205.167815 
L 373.621066 193.675214 
L 375.427791 192.669612 
L 377.234516 189.724633 
L 379.041241 184.481134 
L 380.847965 219.892709 
L 382.65469 216.660415 
L 384.461415 219.677223 
L 386.26814 251.49736 
L 388.074865 229.302276 
L 389.881589 199.852487 
L 391.688314 196.763851 
L 393.495039 186.564168 
L 397.108488 218.599792 
L 398.915213 197.913111 
L 400.721938 219.318079 
L 402.528663 205.526959 
L 406.142112 207.75365 
L 407.948837 206.317075 
L 409.755562 188.862688 
L 411.562287 188.072572 
L 413.369012 176.579971 
L 415.175736 178.806663 
L 416.982461 183.906504 
L 418.789186 174.425109 
L 420.595911 188.647202 
L 422.402635 190.155606 
L 424.20936 190.586578 
L 426.016085 198.703227 
L 427.82281 207.897307 
L 429.629535 192.597783 
L 431.436259 197.553967 
L 433.242984 194.249844 
L 435.049709 183.475532 
L 436.856434 194.896303 
L 438.663158 203.012952 
L 440.469883 192.741441 
L 442.276608 199.1342 
L 444.083333 222.909517 
L 445.890058 200.570775 
L 447.696782 212.422519 
L 449.503507 197.266652 
L 451.310232 187.138798 
L 453.116957 188.71903 
L 454.923682 184.840278 
L 456.730406 199.493343 
L 458.537131 204.593185 
L 460.343856 204.018555 
L 462.150581 196.332878 
L 463.957305 200.570775 
L 465.76403 207.250849 
L 467.570755 207.897307 
L 469.37748 200.570775 
L 471.184205 197.482138 
L 472.990929 203.73124 
L 474.797654 209.190225 
L 476.604379 212.135204 
L 478.411104 206.676219 
L 480.217828 202.438322 
L 482.024553 208.831081 
L 483.831278 187.282455 
L 485.638003 185.917709 
L 487.444728 194.249844 
L 489.251452 197.41031 
L 491.058177 193.028756 
L 492.864902 202.725637 
L 496.478351 192.525954 
L 498.285076 193.028756 
L 500.091801 179.309464 
L 501.898526 170.115384 
L 503.705251 189.940119 
L 505.511975 187.282455 
L 507.3187 192.238639 
L 509.125425 181.82347 
L 510.93215 204.808671 
L 512.738875 212.278861 
L 514.545599 215.870299 
L 516.352324 218.09699 
L 518.159049 205.45513 
L 519.965774 207.75365 
L 521.772498 206.963534 
L 523.579223 209.621197 
L 525.385948 225.208037 
L 527.192673 215.367498 
L 528.999398 218.743449 
L 530.806122 206.748047 
L 532.612847 197.841282 
L 534.419572 205.167815 
L 536.226297 196.763851 
L 538.033021 196.979337 
L 539.839746 204.449527 
L 541.646471 204.593185 
L 543.453196 201.289062 
L 545.259921 196.548364 
L 547.066645 197.266652 
L 548.87337 213.428121 
L 550.680095 220.539168 
L 552.48682 203.73124 
L 554.293545 204.736842 
L 556.100269 208.974739 
L 557.906994 207.107191 
L 559.713719 204.593185 
L 561.520444 213.859094 
L 563.327168 241.15402 
L 565.133893 234.25846 
L 566.940618 223.84329 
L 568.747343 223.84329 
L 570.554068 229.302276 
L 572.360792 222.837688 
L 574.167517 208.974739 
L 575.974242 203.803069 
L 577.780967 217.306874 
L 579.587691 215.654813 
L 581.394416 204.808671 
L 583.201141 215.870299 
L 585.007866 229.230447 
L 586.814591 267.802487 
L 588.621315 249.127011 
L 590.42804 238.711842 
L 592.234765 241.297677 
L 594.04149 234.25846 
L 595.848215 223.699633 
L 597.654939 220.539168 
L 599.461664 234.114802 
L 601.268389 244.889115 
L 603.075114 252.64662 
L 604.881838 269.741863 
L 606.688563 255.088798 
L 608.495288 334.315912 
L 610.302013 353.99699 
L 612.108738 319.519189 
L 613.915462 318.154443 
L 615.722187 276.565595 
L 617.528912 258.752064 
L 619.335637 251.425532 
L 621.142361 246.756663 
L 622.949086 254.585997 
L 624.755811 282.455553 
L 626.562536 296.174844 
L 628.369261 254.873312 
L 630.175985 268.017973 
L 631.98271 288.130024 
L 633.789435 279.223259 
L 635.59616 290.787688 
L 637.402884 279.007773 
L 639.209609 294.738269 
L 641.016334 296.821303 
L 642.823059 308.52939 
L 644.629784 351.195669 
L 646.436508 329.072413 
L 648.243233 326.271092 
L 650.049958 283.245669 
L 651.856683 327.564009 
L 653.663408 360.102434 
L 655.470132 373.60624 
L 657.276857 333.238481 
L 659.083582 334.962371 
L 662.697031 434.804337 
L 664.503756 433.726906 
L 666.310481 348.322519 
L 668.117206 315.281293 
M 671.730655 306.590014 
L 673.53738 341.786102 
L 675.344105 327.635838 
L 677.15083 283.963956 
L 678.957554 273.117815 
L 680.764279 267.371515 
L 682.571004 327.492181 
L 684.377729 342.217075 
L 686.184454 319.231874 
L 687.991178 284.251271 
L 689.797903 266.868713 
L 691.604628 298.257878 
L 693.411353 336.973576 
M 697.024802 392.353544 
L 698.831527 347.316916 
L 700.638252 274.338904 
L 702.444977 297.970563 
L 704.251701 299.407138 
L 706.058426 324.762688 
L 707.865151 356.367339 
L 711.478601 264.642022 
L 713.285325 234.114802 
L 715.09205 294.235468 
L 716.898775 349.39995 
L 718.7055 370.517603 
L 720.512224 326.630236 
L 724.125674 281.593608 
L 725.932399 274.769876 
L 727.739124 293.732667 
L 729.545848 291.290489 
L 731.352573 303.93235 
L 733.159298 400.182878 
L 734.966023 345.37754 
L 734.966023 345.37754 
" style="fill:none;stroke:#2b8cbe;stroke-linecap:square;stroke-width:1.5;"/>
   </g>
   <g id="patch_3">
    <path d="M 42.53875 522.837656 
L 42.53875 33.597656 
" style="fill:none;stroke:#000000;stroke-linecap:square;stroke-linejoin:miter;stroke-width:0.8;"/>
   </g>
   <g id="patch_4">
    <path d="M 767.93875 522.837656 
L 767.93875 33.597656 
" style="fill:none;stroke:#000000;stroke-linecap:square;stroke-linejoin:miter;stroke-width:0.8;"/>
   </g>
   <g id="patch_5">
    <path d="M 42.53875 522.837656 
L 767.93875 522.837656 
" style="fill:none;stroke:#000000;stroke-linecap:square;stroke-linejoin:miter;stroke-width:0.8;"/>
   </g>
   <g id="patch_6">
    <path d="M 42.53875 33.597656 
L 767.93875 33.597656 
" style="fill:none;stroke:#000000;stroke-linecap:square;stroke-linejoin:miter;stroke-width:0.8;"/>
   </g>
   <g id="text_16">
    <!-- 2016 Walt Disney World Weather -->
    <g transform="translate(281.417266 18.597656)scale(0.15 -0.15)">
     <defs>
      <path d="M 3.328125 72.90625 
L 13.28125 72.90625 
L 28.609375 11.28125 
L 43.890625 72.90625 
L 54.984375 72.90625 
L 70.3125 11.28125 
L 85.59375 72.90625 
L 95.609375 72.90625 
L 77.296875 0 
L 64.890625 0 
L 49.515625 63.28125 
L 33.984375 0 
L 21.578125 0 
z
" id="DejaVuSans-87"/>
      <path d="M 9.421875 75.984375 
L 18.40625 75.984375 
L 18.40625 0 
L 9.421875 0 
z
" id="DejaVuSans-108"/>
      <path d="M 32.171875 -5.078125 
Q 28.375 -14.84375 24.75 -17.8125 
Q 21.140625 -20.796875 15.09375 -20.796875 
L 7.90625 -20.796875 
L 7.90625 -13.28125 
L 13.1875 -13.28125 
Q 16.890625 -13.28125 18.9375 -11.515625 
Q 21 -9.765625 23.484375 -3.21875 
L 25.09375 0.875 
L 2.984375 54.6875 
L 12.5 54.6875 
L 29.59375 11.921875 
L 46.6875 54.6875 
L 56.203125 54.6875 
z
" id="DejaVuSans-121"/>
      <path d="M 30.609375 48.390625 
Q 23.390625 48.390625 19.1875 42.75 
Q 14.984375 37.109375 14.984375 27.296875 
Q 14.984375 17.484375 19.15625 11.84375 
Q 23.34375 6.203125 30.609375 6.203125 
Q 37.796875 6.203125 41.984375 11.859375 
Q 46.1875 17.53125 46.1875 27.296875 
Q 46.1875 37.015625 41.984375 42.703125 
Q 37.796875 48.390625 30.609375 48.390625 
z
M 30.609375 56 
Q 42.328125 56 49.015625 48.375 
Q 55.71875 40.765625 55.71875 27.296875 
Q 55.71875 13.875 49.015625 6.21875 
Q 42.328125 -1.421875 30.609375 -1.421875 
Q 18.84375 -1.421875 12.171875 6.21875 
Q 5.515625 13.875 5.515625 27.296875 
Q 5.515625 40.765625 12.171875 48.375 
Q 18.84375 56 30.609375 56 
z
" id="DejaVuSans-111"/>
     </defs>
     <use xlink:href="#DejaVuSans-50"/>
     <use x="63.623047" xlink:href="#DejaVuSans-48"/>
     <use x="127.246094" xlink:href="#DejaVuSans-49"/>
     <use x="190.869141" xlink:href="#DejaVuSans-54"/>
     <use x="254.492188" xlink:href="#DejaVuSans-32"/>
     <use x="286.279297" xlink:href="#DejaVuSans-87"/>
     <use x="378.78125" xlink:href="#DejaVuSans-97"/>
     <use x="440.060547" xlink:href="#DejaVuSans-108"/>
     <use x="467.84375" xlink:href="#DejaVuSans-116"/>
     <use x="507.052734" xlink:href="#DejaVuSans-32"/>
     <use x="538.839844" xlink:href="#DejaVuSans-68"/>
     <use x="615.841797" xlink:href="#DejaVuSans-105"/>
     <use x="643.625" xlink:href="#DejaVuSans-115"/>
     <use x="695.724609" xlink:href="#DejaVuSans-110"/>
     <use x="759.103516" xlink:href="#DejaVuSans-101"/>
     <use x="820.626953" xlink:href="#DejaVuSans-121"/>
     <use x="879.806641" xlink:href="#DejaVuSans-32"/>
     <use x="911.59375" xlink:href="#DejaVuSans-87"/>
     <use x="1004.595703" xlink:href="#DejaVuSans-111"/>
     <use x="1065.777344" xlink:href="#DejaVuSans-114"/>
     <use x="1106.890625" xlink:href="#DejaVuSans-108"/>
     <use x="1134.673828" xlink:href="#DejaVuSans-100"/>
     <use x="1198.150391" xlink:href="#DejaVuSans-32"/>
     <use x="1229.9375" xlink:href="#DejaVuSans-87"/>
     <use x="1322.939453" xlink:href="#DejaVuSans-101"/>
     <use x="1384.462891" xlink:href="#DejaVuSans-97"/>
     <use x="1445.742188" xlink:href="#DejaVuSans-116"/>
     <use x="1484.951172" xlink:href="#DejaVuSans-104"/>
     <use x="1548.330078" xlink:href="#DejaVuSans-101"/>
     <use x="1609.853516" xlink:href="#DejaVuSans-114"/>
    </g>
   </g>
   <g id="legend_1">
    <g id="line2d_16">
     <path d="M 56.03875 53.245312 
L 86.03875 53.245312 
" style="fill:none;stroke:#fc8d59;stroke-linecap:square;stroke-width:1.5;"/>
    </g>
    <g id="line2d_17"/>
    <g id="text_17">
     <!-- Max -->
     <g transform="translate(98.03875 58.495312)scale(0.15 -0.15)">
      <defs>
       <path d="M 9.8125 72.90625 
L 24.515625 72.90625 
L 43.109375 23.296875 
L 61.8125 72.90625 
L 76.515625 72.90625 
L 76.515625 0 
L 66.890625 0 
L 66.890625 64.015625 
L 48.09375 14.015625 
L 38.1875 14.015625 
L 19.390625 64.015625 
L 19.390625 0 
L 9.8125 0 
z
" id="DejaVuSans-77"/>
       <path d="M 54.890625 54.6875 
L 35.109375 28.078125 
L 55.90625 0 
L 45.3125 0 
L 29.390625 21.484375 
L 13.484375 0 
L 2.875 0 
L 24.125 28.609375 
L 4.6875 54.6875 
L 15.28125 54.6875 
L 29.78125 35.203125 
L 44.28125 54.6875 
z
" id="DejaVuSans-120"/>
      </defs>
      <use xlink:href="#DejaVuSans-77"/>
      <use x="86.279297" xlink:href="#DejaVuSans-97"/>
      <use x="147.558594" xlink:href="#DejaVuSans-120"/>
     </g>
    </g>
    <g id="line2d_18">
     <path d="M 159.05125 53.245312 
L 189.05125 53.245312 
" style="fill:none;stroke:#2b8cbe;stroke-linecap:square;stroke-width:1.5;"/>
    </g>
    <g id="line2d_19"/>
    <g id="text_18">
     <!-- Min -->
     <g transform="translate(201.05125 58.495312)scale(0.15 -0.15)">
      <use xlink:href="#DejaVuSans-77"/>
      <use x="86.279297" xlink:href="#DejaVuSans-105"/>
      <use x="114.0625" xlink:href="#DejaVuSans-110"/>
     </g>
    </g>
   </g>
  </g>
 </g>
 <defs>
  <clipPath id="p087e0c0bac">
   <rect height="489.24" width="725.4" x="42.53875" y="33.597656"/>
  </clipPath>
 </defs>
</svg>
